<?xml version="1.0" encoding="UTF-8" standalone="no"?>
<!-- Created with Inkscape (http://www.inkscape.org/) -->

<svg
   width="76.320953mm"
   height="30.529594mm"
   viewBox="0 0 76.320953 30.529594"
   version="1.1"
   id="svg344"
   inkscape:version="1.2.2 (b0a8486541, 2022-12-01)"
   sodipodi:docname="logo_white.svg"
   xmlns:inkscape="http://www.inkscape.org/namespaces/inkscape"
   xmlns:sodipodi="http://sodipodi.sourceforge.net/DTD/sodipodi-0.dtd"
   xmlns="http://www.w3.org/2000/svg"
   xmlns:svg="http://www.w3.org/2000/svg">
  <sodipodi:namedview
     id="namedview346"
     pagecolor="#ffffff"
     bordercolor="#666666"
     borderopacity="1.0"
     inkscape:showpageshadow="2"
     inkscape:pageopacity="0"
     inkscape:pagecheckerboard="true"
     inkscape:deskcolor="#d1d1d1"
     inkscape:document-units="mm"
     showgrid="false"
     showborder="false"
     inkscape:zoom="3.9700151"
     inkscape:cx="141.18334"
     inkscape:cy="112.46809"
     inkscape:window-width="3840"
     inkscape:window-height="2091"
     inkscape:window-x="0"
     inkscape:window-y="32"
     inkscape:window-maximized="1"
     inkscape:current-layer="layer1" />
  <defs
     id="defs341" />
  <g
     inkscape:label="Layer 1"
     inkscape:groupmode="layer"
     id="layer1"
     transform="translate(-117.89038,-174.76486)">
    <path
       id="path924"
       style="fill:#ffffff;fill-opacity:1;fill-rule:nonzero;stroke:none;stroke-width:0.0352779"
       d="m 184.687,194.44239 1.67631,-1.63518 0.48848,1.63518 z m 5.258,1.43182 -0.30862,-1.03679 -1.14538,-3.86633 -0.108,0.004 h -2.93132 l -4.77746,4.6345 c 0.0179,0.0723 0.0275,0.14333 0.0257,0.20321 -0.007,0.33251 -0.0369,0.66135 -0.15163,1.02785 h 1.67444 l 1.0278,-0.9955 h 4.02071 l 0.30116,0.9987 h 1.4274 c 0.12201,-0.14225 0.2496,-0.28514 0.38654,-0.42893 0.16142,-0.17094 0.35224,-0.35392 0.55869,-0.54126 m -17.37051,-2.93897 1.18316,1.781 c 0.003,-1.9e-4 0.005,-5.5e-4 0.008,-0.001 0.0842,-0.006 0.1675,-0.009 0.24728,-0.009 0.95642,0 1.56573,0.44578 1.67164,1.22151 0.0392,0.27636 -0.0207,0.58818 -0.15582,0.91934 h 2.25248 c 0.55823,-0.54227 1.16847,-1.08009 1.66301,-1.39865 l 1.5599,-4.47604 h -2.37146 l -1.35625,3.92603 -2.58375,-3.92603 h -3.81356 l -2.07543,5.87469 h 0.28015 c 0.80433,-0.54255 1.73556,-1.10113 2.63273,-1.51193 l 0.85776,-2.39952 m -28.64815,1.50715 1.67607,-1.63517 0.48848,1.63517 z m 5.54562,2.39837 -0.59625,-2.00334 -1.14537,-3.86632 -0.10801,0.004 h -2.93155 l -6.04641,5.86556 h 2.81743 l 1.02804,-0.9955 h 4.02071 l 0.30115,0.99869 h 2.66166 l -0.001,-0.004 m 1.57623,-9.32322 1.67631,-1.63483 0.48847,1.63483 z m 2.89749,2.45164 h 2.66143 l -0.001,-0.004 -0.60814,-2.05299 -1.14537,-3.86624 -0.10777,0.004 h -2.93179 l -6.10455,5.93108 h 2.81772 l 1.08612,-1.06111 h 4.02048 l 0.31329,1.04835 m 9.36852,4.70057 h 3.60128 l 0.44182,-1.33676 h -3.56653 l 0.26803,-0.75177 h 5.45675 l 0.56009,-1.58736 h -8.01529 l -1.99776,5.85282 h 7.87393 l 0.43996,-1.53358 h -5.29136 l 0.22908,-0.64335 m -9.70537,-1.14769 0.32472,-0.91895 h 3.34072 c 0,0 0.45418,0.0232 0.45418,0.38998 0,0.23465 -0.3639,0.51621 -0.68886,0.51988 -1.08495,0.0123 -3.43076,0.009 -3.43076,0.009 z m 5.73154,0.64972 c 0.63661,-0.67158 0.81879,-1.52951 0.81879,-1.52951 0,0 0.25917,-0.74037 0,-1.15681 -0.26009,-0.4155 -1.0397,-0.53261 -1.28627,-0.53261 -0.13063,0 -6.83679,0 -6.83679,0 l -2.0857,5.89383 h 2.4825 l 1.12718,-3.18519 3.2775,3.18519 h 2.76896 l -2.12466,-2.03431 c 0,0 1.22189,0.031 1.85849,-0.64059 m 9.0571,-4.18435 0.67533,-2.11725 h 4.34286 l -0.70985,2.07169 h 2.49253 l 2.0913,-5.88916 h -2.52729 l -0.72338,2.02146 h -4.28501 l 0.70705,-2.02146 h -2.43491 l -2.09294,5.93472 h 2.46431 m -10.20667,-0.025 h 6.88252 l 0.45978,-1.62927 h -5.67696 c 0,0 -0.58901,0.005 -0.46935,-0.40459 0.11944,-0.40961 0.59019,-1.72906 0.59019,-1.72906 0,0 0.0842,-0.47419 0.62587,-0.47419 0.62704,0 5.90837,0 5.90837,0 l 0.59018,-1.66456 h -5.96038 c 0,0 -1.41621,0.0302 -2.18974,0.42619 -0.77355,0.39547 -1.02431,1.17684 -1.02431,1.17684 l -0.85822,2.46525 c 0,0 -0.30979,1.00235 0.0269,1.37002 0.33662,0.36769 1.09522,0.46337 1.09522,0.46337 m -17.64608,-1.59102 0.22945,-0.64333 h 3.60098 l 0.44158,-1.33675 h -3.56605 l 0.26826,-0.75186 h 5.45604 l 0.5601,-1.58671 h -8.01539 l -2.02201,5.92241 h 7.87892 l 0.45932,-1.60376 h -5.29166 m -5.06251,-2.43515 c -0.13075,0.35847 -0.64924,0.33843 -0.64924,0.33843 h -3.40709 l 0.20797,-0.67695 h 3.45126 c 0,0 0.5276,-0.0201 0.3971,0.33852 z m -0.41532,2.08433 c -0.13077,0.35856 -0.64943,0.33808 -0.64943,0.33808 h -3.74132 l 0.20774,-0.67585 h 3.78616 c 0,0 0.52731,-0.0205 0.39656,0.33851 z m 1.87074,-1.11123 c 0,0 0.66455,-0.33306 0.90968,-0.82194 0.29112,-0.58036 0.32486,-1.13712 0.32486,-1.13712 0,0 0.0854,-0.92762 -1.8302,-0.92762 -1.67848,0 -6.60457,0.0214 -6.60457,0.0214 l -2.09219,5.93109 h 6.81233 c 0,0 1.5058,0.0888 2.28764,-0.69343 0,0 0.49725,-0.40731 0.65536,-1.04882 0.11573,-0.46975 0.28548,-1.00919 -0.46291,-1.32355 m 56.00563,7.83052 0.0327,0.0216 c -0.23328,0.44651 -0.5265,1.14888 -3.59918,3.85714 l -0.0333,-0.0207 c 0.81786,-1.4453 2.13142,-2.74743 3.59988,-3.85795 z m -0.5083,5.29468 c -0.0451,0 -0.091,-0.001 -0.1374,-0.005 0.23187,-0.45925 0.67533,-1.04033 0.63847,-1.53933 -0.0159,-0.21625 -0.12154,-0.49044 -0.45792,-0.49044 -0.0154,0 -0.031,5.5e-4 -0.0474,0.002 -0.91909,0.0674 -2.07917,1.32274 -2.02854,2.01134 0.0137,0.19037 0.11616,0.30209 0.25193,0.44814 -0.2482,0.25635 -0.50434,0.59713 -0.99865,0.69345 -0.0447,0.008 -0.0886,0.0115 -0.1311,0.0115 -0.51577,0 -0.85752,-0.55748 -0.64943,-1.26787 l 2.29588,-1.99515 c 0.94266,-0.80944 3.11654,-2.75991 3.03817,-3.84062 -0.0161,-0.21386 -0.157,-0.40807 -0.4374,-0.40807 -0.0154,0 -0.031,5.5e-4 -0.0472,0.002 -0.57618,0.042 -2.4615,1.31216 -3.70601,2.46522 -0.16703,0.15472 -0.32356,0.30755 -0.46283,0.45481 -0.0844,0.0887 -0.16656,0.1785 -0.24727,0.26871 -0.81295,0.90795 -1.4232,1.88942 -1.58369,2.95474 -0.008,0.0523 -0.0142,0.10478 -0.0196,0.15746 -0.006,0.0514 -0.0119,0.10268 -0.0154,0.15445 -0.0112,0.16686 -0.011,0.33542 10e-4,0.50646 0.003,0.0357 0.006,0.0737 0.0102,0.11337 0.004,0.0443 0.0107,0.0912 0.0177,0.13923 0.007,0.0441 0.014,0.0891 0.0226,0.13531 0.10544,0.56059 0.3905,1.25341 1.13511,1.25341 0.0301,0 0.0609,-0.001 0.0924,-0.004 1.0278,-0.0749 2.06471,-0.87952 2.69477,-1.46317 0.99609,-0.0848 1.77616,-0.33286 2.43493,-0.94266 l -0.18359,-0.38089 c -0.44369,0.28832 -0.90137,0.56587 -1.48059,0.56587 m -18.42188,-5.0954 c -0.0339,0 -0.0697,0.003 -0.10475,0.004 -0.0418,10e-4 -0.0826,10e-4 -0.12549,0.004 -0.62168,0.0455 -1.38775,0.3193 -2.17785,0.69957 -0.70845,0.34088 -1.4351,0.76698 -2.09736,1.19935 -0.80037,0.52258 -1.50579,1.05055 -1.96137,1.43554 -1.51885,1.26944 -3.29687,3.28707 -3.16927,5.03288 0.0926,1.26406 1.21723,1.98165 2.75357,1.98165 0.1241,0 0.25124,-0.004 0.38024,-0.014 1.4638,-0.10661 3.99622,-1.00863 6.86898,-3.46475 0.56056,-0.47028 0.79734,-0.6548 0.70612,-1.25713 -1.40571,1.10597 -4.6888,3.30475 -6.6504,3.44872 -0.0856,0.007 -0.16773,0.009 -0.24704,0.009 -0.95783,0 -1.44466,-0.45233 -1.50182,-1.2307 -0.066,-0.9033 0.63124,-2.27962 1.64994,-3.33327 3.26001,-3.36733 5.03126,-3.5453 5.30722,-3.62475 0.0595,-0.0159 0.11524,-0.0239 0.1654,-0.0239 0.15676,0 0.26149,0.0773 0.27246,0.23001 0.0287,0.39255 -0.87384,1.5334 -2.31128,2.64208 l -0.0324,-0.0217 c 0.0593,-0.18316 -0.0101,-0.26299 -0.14627,-0.26299 -0.01,0 -0.0194,2.8e-4 -0.0297,0.001 -0.17146,0.0123 -0.65737,0.43011 -0.76025,0.52132 l -1.09569,0.85609 c -0.31095,0.23773 -0.70565,0.62474 -0.67952,0.98139 0.024,0.32548 0.34758,0.5235 0.72128,0.5235 0.063,0 0.12784,-0.006 0.19245,-0.0172 1.63222,-0.30963 4.56494,-2.7067 5.33358,-4.41306 0.14743,-0.32732 0.21625,-0.62965 0.17985,-0.88653 -0.0931,-0.68179 -0.6331,-1.02104 -1.44069,-1.02104 m 5.32634,1.93071 c -0.23047,0.69754 -1.11248,1.90856 -2.16059,2.77377 l -0.0327,-0.0217 c 0.64243,-1.27698 1.45143,-2.41128 2.19323,-2.75208 z m -1.65624,5.17249 c -0.0261,0.002 -0.0517,0.003 -0.0768,0.003 -0.37277,0 -0.58878,-0.20995 -0.73925,-0.45652 -0.0984,-0.2792 -0.0758,-0.61536 0.0492,-0.82766 2.25436,-1.93364 3.08108,-3.03804 3.38224,-3.91975 0.12527,-0.36722 0.16026,-0.69616 0.16795,-1.02977 0,-0.001 2.4e-4,-0.002 2.4e-4,-0.004 0.004,-0.15025 -0.0728,-0.41751 -0.31748,-0.41751 -0.008,0 -0.0168,1.8e-4 -0.0257,5.4e-4 -0.17379,0.0128 -0.45909,0.17132 -0.809,0.42846 -0.34873,0.25641 -0.76187,0.61153 -1.19902,1.02687 -0.38047,0.36139 -0.77773,0.76651 -1.16381,1.18905 -0.94266,1.02486 -1.5452,2.41805 -1.45377,3.66515 0.0488,0.66781 0.33336,1.44839 1.3432,1.44839 0.0501,0 0.10194,-0.002 0.15536,-0.006 0.99865,-0.0731 2.01736,-0.81792 2.80582,-1.4988 -0.003,-0.0186 -0.005,-0.037 -0.007,-0.0555 -0.0144,-0.19712 0.004,-0.39722 0.045,-0.59695 -0.62167,0.45844 -1.47918,1.00099 -2.15755,1.05018 m 9.76765,-1.76167 c -0.57222,0.40266 -1.50975,1.02594 -1.99146,1.06094 -0.0279,0.002 -0.0548,0.004 -0.08,0.004 -0.20062,0 -0.31656,-0.0672 -0.32869,-0.23584 -0.0392,-0.53468 0.99772,-1.55409 1.47033,-1.93452 0.23724,-0.18498 0.63777,-0.48868 0.58528,-0.77146 -0.0984,-0.56258 -0.25286,-0.62828 -0.37347,-0.62828 -0.011,0 -0.0217,4.5e-4 -0.032,0.001 -0.38957,0.0285 -1.83237,1.26868 -2.14309,1.51836 l -1.46426,1.17012 c -0.69493,0.55237 -1.52655,0.9596 -1.80624,0.97991 -0.004,2.9e-4 -0.007,2.9e-4 -0.0101,2.9e-4 -0.10077,0 -0.12363,-0.11153 -0.12807,-0.16957 -0.0363,-0.49881 0.31819,-0.7873 0.78147,-1.0841 0.58318,-0.37697 0.66879,-0.49078 1.12088,-0.94166 0.16352,-0.11946 0.55939,-0.48313 0.57665,-0.67539 0.0187,-0.18427 -0.17728,-0.23136 -0.40216,-0.23136 -0.21601,0 -0.45885,0.0433 -0.56545,0.0513 -0.26477,0.0195 -0.46562,0.0583 -0.6758,0.18124 -0.61748,0.36768 -1.28324,1.02596 -1.65859,1.75566 l 0.004,0.0163 c 0,0 -0.33241,0.50455 -0.27572,1.38683 0.10707,0.45096 0.51833,0.93125 1.14934,0.93125 0.0308,0 0.0623,-0.001 0.094,-0.004 0.85658,-0.062 1.82163,-1.20791 2.39922,-1.65605 l 0.0324,0.0213 c -0.1332,0.32056 -0.27969,0.66511 -0.2538,1.02204 0.0289,0.39183 0.35971,0.72004 0.88084,0.72004 0.031,0 0.0628,-0.001 0.0949,-0.004 0.96949,-0.0709 2.21868,-1.13255 3.03909,-1.84987 -0.0133,-0.0908 -0.0247,-0.18361 -0.0317,-0.28084 -0.009,-0.11782 -0.0102,-0.23584 -0.008,-0.35393 m -11.97892,-19.54914 c 0,0 0.0761,-0.21974 0.31002,-0.21974 0.1318,0 0.39821,0 0.63661,0 0.25006,0 0.46958,0 0.46958,0 h 0.31889 1.22748 l 0.24144,-0.70309 h -1.53868 -0.77213 -0.63591 c 0,0 -0.36624,0.0131 -0.69959,0.18382 -0.33404,0.171 -0.44205,0.50784 -0.44205,0.50784 l -0.37067,1.06373 c 0,0 -0.13344,0.43265 0.0119,0.59137 0.14532,0.15865 0.47261,0.19994 0.47261,0.19994 h 0.78847 0.97321 0.44929 c 0,0 0.35107,-0.0132 0.68489,-0.18399 0.33405,-0.17066 0.44206,-0.50771 0.44206,-0.50771 l 0.28553,-0.83232 h -1.86457 l -0.1115,0.33824 0.89717,0.005 -0.0907,0.25777 c 0,0 -0.0545,0.21975 -0.28832,0.21975 -0.27061,0 -1.12789,0 -1.12789,0 H 175.419 c 0,0 -0.25404,0.002 -0.20248,-0.17449 0.0516,-0.17659 0.2545,-0.74625 0.2545,-0.74625 m -9.69253,0.17753 c -0.46795,0.005 -1.27018,0.004 -1.27018,0.004 l 0.13997,-0.39634 h 1.23098 c 0,0 0.19618,0.0101 0.19618,0.16797 0,0.10147 -0.15699,0.22277 -0.29695,0.22441 z m 1.34505,-0.87431 c -0.1122,-0.1794 -0.44834,-0.22955 -0.55472,-0.22955 -0.0565,0 -2.73887,0 -2.73887,0 l -0.89927,2.54155 h 1.0705 l 0.31072,-0.87807 1.65694,5.5e-4 c 0,0 0.5272,0.0136 0.80176,-0.2762 0.27434,-0.2895 0.35294,-0.6597 0.35294,-0.6597 0,0 0.11175,-0.31912 0,-0.49874 m -4.78584,-0.83932 h -0.60512 l -0.16399,0.44438 h 0.60511 l 0.164,-0.44438 m -1.11879,0 h -0.60534 l -0.16376,0.44438 h 0.60511 l 0.16399,-0.44438 m 0.77494,1.49085 c -0.0516,0.17659 -0.25427,0.74625 -0.25427,0.74625 0,0 -0.0545,0.21974 -0.28832,0.21974 -0.27037,0 -1.12765,0 -1.12765,0 h -0.31913 c 0,0 -0.25449,0.002 -0.20271,-0.17449 0.0516,-0.17658 0.25451,-0.74624 0.25451,-0.74624 0,0 0.076,-0.21975 0.30978,-0.21975 0.2706,0 1.10619,0 1.10619,0 h 0.31912 c 0,0 0.25404,-0.002 0.20248,0.17449 z m 0.98885,-0.67766 c -0.15606,-0.19992 -0.47284,-0.19992 -0.47284,-0.19992 h -0.78847 -0.77215 -0.63589 c 0,0 -0.36578,0.0131 -0.69936,0.18382 -0.33381,0.171 -0.44206,0.50784 -0.44206,0.50784 l -0.37044,1.06374 c 0,0 -0.13366,0.43264 0.0116,0.59137 0.14533,0.15865 0.4726,0.19994 0.4726,0.19994 h 0.78847 0.97322 0.44952 c 0,0 0.35084,-0.0132 0.68489,-0.18399 0.33382,-0.17067 0.44182,-0.50772 0.44182,-0.50772 l 0.37044,-1.06373 c 0,0 0.12061,-0.42152 -0.0114,-0.59135 m -4.78072,2.14302 c -0.003,-0.003 -0.006,-0.005 -0.009,-0.008 -10e-4,-10e-4 -0.002,-10e-4 -0.004,-0.002 l -0.0408,-0.0348 c -0.004,-0.006 -0.009,-0.0106 -0.0131,-0.0128 -5.5e-4,-0.003 -0.004,-0.002 -0.004,-0.002 l -0.0938,-0.0795 v -1.9e-4 c -0.001,-0.001 -0.002,-0.001 -0.004,-0.003 l -0.0406,-0.0344 c -0.004,-0.004 -0.007,-0.005 -0.0102,-0.009 -0.022,-0.0159 -0.0366,-0.0301 -0.0543,-0.0452 l -0.11548,-0.0977 c -5.4e-4,-5.4e-4 -0.003,-0.002 -0.004,-0.004 -5.4e-4,-5.4e-4 -0.001,-5.4e-4 -0.002,-10e-4 l -0.0378,-0.0319 v -0.003 c -10e-4,-5.5e-4 -0.003,-5.5e-4 -0.004,-5.5e-4 l -0.24284,-0.20551 c -0.002,-0.003 -0.006,-0.004 -0.008,-0.007 -0.001,2.3e-4 -5.5e-4,-5.5e-4 -0.002,-5.5e-4 l -0.069,-0.0583 c -2.4e-4,-4.7e-4 0,-5.5e-4 -4.7e-4,-0.001 -0.003,-0.002 -0.004,-0.004 -0.007,-0.004 l -0.0996,-0.0842 c -2.4e-4,-0.001 -0.001,-0.004 -0.004,-0.007 h -0.004 l -0.40869,-0.34594 2.27465,-1.25221 h -1.51674 c -0.008,0.004 -0.0189,0.0109 -0.0336,0.0193 h -0.001 c -0.0163,0.0105 -0.0327,0.0195 -0.0486,0.0294 -0.15606,0.091 -0.48427,0.28204 -0.81599,0.47566 -0.001,5.4e-4 -0.004,0.002 -0.005,0.003 0,2.3e-4 -2.3e-4,2.3e-4 -2.3e-4,2.3e-4 -0.46141,0.26873 -0.92493,0.53933 -0.93123,0.54423 l 0.3807,-1.07167 h -1.09289 l -0.31049,0.86755 -0.26966,0.7768 -0.30698,0.89583 h 0.55145 0.0249 0.12481 0.0497 0.0332 0.0536 0.0304 0.0781 0.0317 0.0105 0.01 0.0341 0.0457 l 0.39774,-1.11953 1.17943,1.11953 h 1.55104 c -0.0243,-0.016 -0.0466,-0.0356 -0.07,-0.0538 l -0.17729,-0.14999 m -12.88769,-2.34294 h -1.09335 l -0.87012,2.54862 h 3.42866 l 0.19176,-0.66796 h -2.30405 l 0.6471,-1.88066 m 22.6691,0 -0.31282,0.87408 -0.26943,0.7768 -0.30722,0.89582 h 1.07819 l 0.90417,-2.5467 h -1.09289 m -19.72262,0 -0.31258,0.87408 -0.26966,0.7768 -0.307,0.89582 h 1.07773 l 0.90441,-2.5467 h -1.0929 m 24.28196,1.70337 -1.12112,-1.70337 h -1.65461 l -0.90021,2.5488 h 1.02898 l 0.60698,-1.69711 1.12719,1.69711 h 1.64153 l 0.88855,-2.5488 h -1.02897 l -0.58832,1.70337 m -19.09208,-1.70337 -0.58831,1.70337 -1.12088,-1.70337 h -1.65461 l -0.90021,2.5488 h 1.0292 l 0.60675,-1.69711 1.12718,1.69711 h 1.64155 l 0.88854,-2.5488 h -1.02921 m -12.77293,2.44656 c 0.0146,-0.0101 0.0253,-0.0205 0.0281,-0.032 0.0169,0.0191 0.004,0.0289 -0.0281,0.032 z m -1.22987,-2.12137 c 0.33577,0.27037 0.50709,0.59905 0.57042,0.92609 -0.19454,-0.2587 -0.4413,-0.58854 -0.57042,-0.92609 z m -19.26014,6.13249 c -0.0114,-0.0465 -0.0123,-0.29014 0.041,-0.76535 0.005,-0.0496 0.0118,-0.0984 0.0173,-0.14761 0.0205,-0.16555 0.0465,-0.35308 0.0802,-0.56679 0.19361,-1.30276 0.71713,-2.59106 1.52538,-3.71918 -0.14351,0.22629 -0.25723,0.41243 -0.2852,0.50994 -0.93156,1.58225 -1.20218,3.02318 -1.30716,3.8688 -0.0214,0.17423 -0.0367,0.32502 -0.0483,0.44467 0.008,0.28757 -0.0121,0.41971 -0.0232,0.37552 z m 20.58688,-4.14782 c -0.27974,-0.61581 -0.62328,-1.21697 -1.05657,-1.76958 -1.85981,-2.44705 -4.68826,-3.77298 -7.69621,-3.93791 -0.79395,-0.0433 -1.59993,-0.007 -2.40429,0.1122 -0.69735,0.10335 -1.39325,0.26734 -2.07805,0.49432 -0.0223,0.007 -0.0437,0.0154 -0.0656,0.0226 -1.30123,0.43062 -2.50632,1.07585 -3.56546,1.89535 -0.91322,0.70682 -1.71874,1.54193 -2.38074,2.4832 -1.75595,2.45437 -2.13775,5.4841 -1.36685,8.29614 0.29952,1.09349 0.77407,2.15324 1.40984,3.13416 0.4784,0.73766 1.04863,1.42974 1.70472,2.05711 0.0374,0.036 0.0734,0.0734 0.11164,0.10889 0.29113,0.32349 0.68343,0.6283 1.13766,0.90758 1.76322,1.083 4.48005,1.77278 6.03295,1.61789 0.0454,-0.009 0.0868,-0.0173 0.12987,-0.026 0.0522,-0.0104 0.1014,-0.0214 0.14987,-0.0323 0.83132,0.0465 1.3375,-0.17313 2.02932,-0.19865 0.17979,-0.007 0.35474,-0.0715 0.55811,-0.12529 0.98351,-0.0875 1.76623,-0.61144 2.63418,-1.10075 0.52141,-0.43695 1.8949,-1.60742 2.28626,-2.15688 0.005,-0.0132 0.64379,-0.80689 0.64881,-0.81645 0.002,-0.01 0.36038,-0.46201 0.19107,-0.43558 0.17615,-0.25196 -0.66812,0.68797 -1.22788,1.08937 -0.003,0.002 0.003,-0.007 0.005,-0.0104 -0.2392,0.14213 -0.48659,0.27473 -0.7461,0.39274 -0.0503,0.0228 -0.10388,0.0455 -0.15508,0.0688 -0.11664,0.0519 -0.23312,0.10434 -0.35311,0.15627 0.0246,0.004 -0.12739,0.0624 -0.12347,0.0538 -0.13969,0.0597 -0.28203,0.11846 -0.42554,0.17587 -0.58393,0.31892 -1.15044,0.61507 -1.82546,0.82373 -0.45171,0.14307 -0.90594,0.21552 -1.3529,0.25152 -0.70575,0.0405 -1.3284,0.29295 -2.0202,0.23098 -1.8598,-0.0715 -4.19118,-1.00188 -4.19118,-1.00188 0,0 -1.64477,-0.65928 -3.07931,-2.36783 -1.60712,-2.11586 -2.74433,-5.15526 -1.60712,-8.09589 0.17831,-0.50345 0.40732,-1.04227 0.70801,-1.58463 0.0141,-0.026 0.0294,-0.0519 0.0442,-0.0779 0.0228,-0.0389 0.0442,-0.0775 0.0676,-0.11691 0.0738,-0.12576 0.15019,-0.25168 0.23237,-0.37725 0.006,-0.008 0.0118,-0.0155 0.0176,-0.0234 0.0241,-0.0377 0.0446,-0.0734 0.0692,-0.11118 2.58013,-3.60071 7.5292,-5.17927 12.02819,-3.26665 1.15224,0.49617 2.17965,0.9914 3.02181,1.70406 0.48141,0.45325 0.84223,1.0488 1.11059,1.56259 0.057,0.0754 0.11181,0.15146 0.16586,0.22828 -0.0483,-0.11939 0.021,-0.0877 0.13714,0.022 h 0.2565 0.95041 c -0.0356,-0.0868 -0.0727,-0.17286 -0.11755,-0.25607 m -14.00555,12.76075 c 0,0 2.33139,0.93036 4.19119,1.00188 0.6918,0.062 1.31445,-0.19045 2.0202,-0.23099 0.44695,-0.036 0.90118,-0.10845 1.35289,-0.25151 0.67503,-0.20866 1.24153,-0.50481 1.82547,-0.82374 0.1435,-0.0574 0.28585,-0.11619 0.42553,-0.17586 -0.004,0.009 0.14807,-0.0497 0.12348,-0.0538 0.11999,-0.0519 0.23647,-0.10435 0.3531,-0.15627 0.97637,-0.64424 1.97891,-1.53406 2.74552,-2.72094 h -0.18044 c -0.0137,0.0154 -0.0273,0.031 -0.0413,0.0474 -0.0717,0.082 -0.14827,0.16677 -0.23027,0.25425 -0.26999,0.28795 -0.59321,0.59504 -0.95952,0.8643 -0.29159,0.2351 -0.60212,0.43965 -0.89528,0.61097 -0.0319,0.0182 -0.0632,0.036 -0.0948,0.0537 -0.62266,0.35264 -1.1468,0.54446 -1.20876,0.53033 -0.0884,-0.0697 0.90303,-0.53306 1.89673,-1.31763 0.19818,-0.15627 0.3959,-0.32486 0.5859,-0.50665 0.0863,-0.0824 0.17151,-0.1672 0.2535,-0.25468 0.0907,-0.092 0.17496,-0.1868 0.2577,-0.28203 h -1.32947 c -0.11619,0.16266 -0.20411,0.2834 -0.60369,0.65335 -0.65016,0.37132 -1.13401,0.77135 -1.89607,1.10623 -1.79512,0.97183 -4.39687,1.78647 -6.54415,0.56086 -0.16841,-0.10387 -0.76864,-0.0414 -1.02951,-0.0779 -1.67164,-0.68434 -2.6719,-2.12816 -3.73467,-3.36059 -0.63831,-0.82649 -0.66082,-1.94548 -0.90046,-2.84441 -0.79097,-2.2048 0.42143,-4.72963 2.30465,-6.1137 -0.44285,-0.27527 0.27002,-0.72362 0.50828,-0.85915 2.0439,-1.5788 4.87872,-1.90143 6.95376,-1.27088 1.06641,0.16259 2.06193,0.4992 2.95856,1.06793 0.92692,0.57734 1.55501,1.2893 2.03068,2.04478 h 1.33313 0.2688 c -0.0401,-0.0806 -0.0823,-0.16401 -0.12757,-0.25032 -0.26836,-0.51379 -0.62919,-1.10934 -1.1106,-1.56259 -0.84216,-0.71266 -1.86957,-1.20789 -3.0218,-1.70407 -4.49899,-1.91261 -9.44806,-0.33405 -12.02819,3.26666 -0.0246,0.0378 -0.0451,0.0735 -0.0693,0.11117 -0.0866,0.13505 -0.17132,0.26946 -0.24995,0.40068 -0.0234,0.0394 -0.0448,0.0779 -0.0676,0.11692 -0.0155,0.0261 -0.0292,0.0517 -0.0442,0.0779 -0.30069,0.54236 -0.52969,1.08118 -0.70801,1.58463 -1.13721,2.94063 0,5.98003 1.60712,8.09589 1.43454,1.70855 3.07931,2.36783 3.07931,2.36783 m 11.24472,-0.99963 -0.009,0.007 0.005,-0.004 c -0.009,0.004 -0.0172,0.0114 -0.0255,0.0159 -0.24375,0.20274 -0.51421,0.39638 -0.79778,0.5809 l -0.19637,0.13623 c 0.004,-0.005 0.006,-0.0104 0.01,-0.0159 -0.97573,0.60458 -2.11861,1.0848 -3.17152,1.33129 -0.0169,0.004 -0.0335,0.008 -0.0504,0.0114 -0.20596,0.0488 -0.4066,0.0902 -0.60069,0.12529 -0.10434,0.007 -0.20868,0.008 -0.31391,-0.003 1.6e-4,0 -0.10981,0.0442 -0.21051,0.0848 -0.0715,0.01 -0.14169,0.0182 -0.21048,0.0264 -0.2661,0.0301 -0.5101,0.0488 -0.72397,0.0588 0.1517,0.11438 0.36494,0.3194 0.34123,0.54537 0.75332,-0.0538 1.45342,-0.14397 2.04209,-0.23099 1.4748,-0.21778 2.06638,-0.54493 2.57966,-0.83787 0.50391,-0.31758 0.95087,-0.66429 1.91312,-1.43199 0.44287,-0.28022 1.86638,-1.84296 2.29402,-2.81114 h -0.57093 c -0.83147,1.12993 -1.57732,2.00424 -2.30339,2.41156 m -8.27794,-18.70786 c 4.03128,-0.25474 7.73877,1.44606 9.81136,4.05243 0.70556,0.99398 1.23134,2.06564 1.49014,3.15121 h 0.65941 c -0.53186,-1.69581 -2.10646,-4.19114 -3.61526,-5.25954 -2.24754,-1.65765 -5.94092,-2.69408 -9.28285,-2.24316 -3.31139,0.41149 -6.75855,2.25855 -8.80563,5.26336 -0.23264,0.27456 -0.67522,0.93426 -0.82147,1.49949 2.17374,-4.03588 6.59228,-6.28955 10.5643,-6.46379 m -8.16913,6.4064 c 0.028,-0.0975 0.14169,-0.28366 0.2852,-0.50994 -0.80825,1.12812 -1.33177,2.41641 -1.52538,3.71918 -0.0337,0.2137 -0.0597,0.40123 -0.0802,0.56678 -0.006,0.0515 -0.0121,0.10053 -0.0173,0.14762 -0.0533,0.4752 -0.0524,0.71888 -0.041,0.76535 -0.0196,1.31399 0.23828,2.63345 0.80234,3.7301 0.74036,1.52859 1.91128,2.63483 2.99384,3.11459 -2.27307,-1.66939 -3.92011,-4.5206 -3.72464,-7.66488 0.10497,-0.84562 0.37559,-2.28655 1.30715,-3.8688 m -2.87219,1.02778 c -0.67613,1.52384 -0.93401,3.26354 -0.74265,4.9392 0.006,-0.74584 0.10041,-1.48348 0.26197,-2.20387 -0.17404,1.52503 0.0333,3.0741 0.64287,4.39812 0.36085,0.85882 0.72826,2.42886 1.4042,3.14692 0.3285,0.41778 0.68615,0.82147 1.0686,1.20555 0.38253,0.38453 0.79076,0.74949 1.21858,1.0921 2.86717,2.40745 7.19779,3.48781 11.04881,2.09809 -0.96153,0.32121 -1.93335,0.34899 -2.90909,0.23327 -0.043,0.009 -0.0845,0.0173 -0.12986,0.026 -1.5529,0.1549 -4.26973,-0.53489 -6.03295,-1.6179 -1.57188,-0.73399 -3.0485,-1.81013 -4.01241,-3.07219 -0.66036,-0.88707 -1.17703,-1.87121 -1.5119,-2.91636 0.24211,0.32893 0.73034,0.75403 0.96818,1.16452 0.77545,1.45661 1.94609,2.84713 3.30683,3.80757 -0.65609,-0.62736 -1.22633,-1.31945 -1.70472,-2.0571 -0.13668,-0.11345 -0.2535,-0.23372 -0.32257,-0.36948 -1.45951,-2.1783 -2.66096,-4.33928 -2.05864,-6.99814 0.0612,-0.26399 0.3346,-0.4096 0.34735,-0.662 -0.32594,1.76767 -0.0337,3.39467 0.62401,4.89546 -0.77089,-2.81205 -0.38909,-5.84179 1.36685,-8.29615 0.66201,-0.94126 1.46753,-1.77639 2.38075,-2.48321 -0.54098,0.26244 -1.05901,0.56546 -1.54497,0.94127 -2.81543,2.43017 -4.0659,6.38134 -3.2109,10.14016 -0.97045,-2.79381 -0.56614,-6.03678 1.06131,-8.51285 1.58581,-2.51982 4.22764,-4.21549 6.89734,-4.87099 1.69234,-0.42246 3.3567,-0.46724 4.91061,-0.22207 3.00795,0.16492 5.83639,1.49085 7.69622,3.9379 0.43328,0.55262 0.77682,1.15377 1.05657,1.76958 0.0448,0.0832 0.082,0.16931 0.11754,0.25607 h 0.11936 c -1.04198,-3.13208 -4.24084,-5.87794 -8.35048,-6.57264 -4.44358,-0.88084 -10.18933,0.97485 -13.00866,5.59928 -0.18999,0.27666 -0.35993,0.56732 -0.51439,0.86565 -0.0688,-0.14288 -0.0529,-0.37157 0.0333,-0.63214 -0.1889,0.31025 -0.33579,0.63506 -0.47702,0.9704 m 3.14055,12.73246 c -0.67932,-0.88707 -1.58554,-2.0539 -2.17602,-3.08814 -0.90622,-1.40602 -1.52221,-3.02026 -1.70718,-4.70512 -0.0191,1.7081 0.40458,3.45036 1.32219,4.99717 0.75859,1.05109 1.65087,1.97963 2.56101,2.79609 m 16.179,-1.45796 c -0.001,4.7e-4 -0.003,0.002 -0.004,0.003 l -0.005,0.004 0.009,-0.007 m 2.66397,-11.62442 c 0.0327,-0.004 0.0449,-0.013 0.0281,-0.032 -0.003,0.0116 -0.0135,0.022 -0.0281,0.032 m -1.22988,-2.12137 c 0.12913,0.33755 0.37588,0.6674 0.57043,0.9261 -0.0633,-0.32705 -0.23465,-0.65573 -0.57043,-0.9261 m 0.1098,2.24074 c -0.003,-0.007 -0.007,-0.0155 -0.01,-0.022 -0.054,-0.0768 -0.10889,-0.15291 -0.16586,-0.22828 0.0453,0.0863 0.0875,0.16968 0.12758,0.25033 h 0.0478 m 0.006,0 h 0.12121 c -0.11619,-0.10981 -0.18545,-0.14144 -0.13714,-0.022 0.003,0.007 0.007,0.0147 0.01,0.022 h 0.006 m -19.318,2.97879 c 0.0205,-0.16556 0.0465,-0.35309 0.0802,-0.56679 -0.0337,0.1868 -0.0583,0.3768 -0.0802,0.56679 m 16.94017,9.12584 c -0.062,0.0406 -0.12331,0.0811 -0.18681,0.1203 -0.004,0.005 -0.006,0.0104 -0.01,0.0159 l 0.19637,-0.13623 m -7.56843,-17.95715 c -1.49101,0.0304 -3.06445,0.41266 -4.51191,1.26224 0.80916,-0.42129 1.60649,-0.64734 2.36827,-0.74531 0.0219,-0.007 0.0433,-0.0154 0.0656,-0.0226 0.6848,-0.22698 1.3807,-0.39097 2.07805,-0.49432"
       inkscape:label="LBAC Logo" />
  </g>
</svg>
