<?xml version="1.0" encoding="UTF-8" standalone="no"?>
<!-- Created with Inkscape (http://www.inkscape.org/) -->

<svg
   version="1.1"
   id="svg2185"
   width="687.62482"
   height="664.36908"
   viewBox="0 0 687.62482 664.36908"
   sodipodi:docname="swirl.svg"
   inkscape:version="1.2.2 (b0a8486541, 2022-12-01)"
   xmlns:inkscape="http://www.inkscape.org/namespaces/inkscape"
   xmlns:sodipodi="http://sodipodi.sourceforge.net/DTD/sodipodi-0.dtd"
   xmlns="http://www.w3.org/2000/svg"
   xmlns:svg="http://www.w3.org/2000/svg">
  <defs
     id="defs2189" />
  <sodipodi:namedview
     id="namedview2187"
     pagecolor="#ffffff"
     bordercolor="#666666"
     borderopacity="1.0"
     inkscape:showpageshadow="2"
     inkscape:pageopacity="0.0"
     inkscape:pagecheckerboard="0"
     inkscape:deskcolor="#d1d1d1"
     showgrid="false"
     inkscape:zoom="1.4567627"
     inkscape:cx="521.01829"
     inkscape:cy="544.01449"
     inkscape:window-width="3840"
     inkscape:window-height="2091"
     inkscape:window-x="0"
     inkscape:window-y="32"
     inkscape:window-maximized="1"
     inkscape:current-layer="g2191" />
  <g
     inkscape:groupmode="layer"
     inkscape:label="Image"
     id="g2191"
     transform="translate(-6.1876,-17.815445)">
    <g
       id="g3651"
       transform="translate(-280.3554,-54.100665)">
      <path
         style="fill:#fbae32;fill-opacity:1"
         d="m 577.38959,735.23322 c -64.29003,-6.46741 -117.45676,-25.45346 -167.5,-59.81491 -60.55646,-41.58019 -95.647,-81.99352 -103.66238,-119.38664 l -1.55331,-7.24645 0.56811,-19 0.56812,-19 -1.44203,-5.57396 c -0.79312,-3.06568 -2.75933,-8.46568 -4.36937,-12 l -2.92733,-6.42604 -0.8409,3 -0.84091,3 -0.63724,-7.5 -0.63725,-7.5 -3.30261,-11.5 -3.30261,-11.5 0.002,-18 0.002,-18 2.8492,-9 c 1.56707,-4.95 3.03389,-10.575 3.25961,-12.5 l 0.4104,-3.5 -0.89689,-2.39453 -0.89688,-2.39452 1.27827,-9.10548 c 4.94862,-35.25026 25.39628,-92.97948 37.75959,-106.60547 1.24759,-1.375 4.4445,-6.05424 7.10426,-10.39832 42.1153,-68.78527 121.76704,-118.20385 217.8494,-135.16101 l 15.84046,-2.79561 -2.34046,-1.87036 -2.34045,-1.87037 -7.40268,0.60337 c -4.07148,0.33186 -8.66389,0.85561 -10.20536,1.16391 l -2.80267,0.56053 1.50297,1.50298 c 2.21666,2.21665 -1.79812,3.30979 -30.39108,8.27485 -6.37886,1.10767 -11.84616,2.39577 -12.14955,2.86245 -0.3034,0.46668 -1.90163,1.49417 -3.55163,2.28332 l -3,1.4348 -4,-0.54527 -4,-0.54527 6.71109,-2.95557 c 10.60054,-4.6685 7.20274,-4.16339 -9.10044,1.35285 -32.72152,11.07142 -62.24688,26.60802 -88.49392,46.56655 -6.53579,4.9699 -13.90867,10.44658 -16.38416,12.17042 -2.4755,1.72383 -7.73159,5.83031 -11.68021,9.1255 l -7.17931,5.99126 -9.33142,10.80869 c -9.83716,11.3945 -25.4808,32.00653 -33.5476,44.20228 -6.09387,9.21298 -6.54137,8.66937 -1.98448,-2.41068 8.62515,-20.97199 28.55941,-56.23062 39.80437,-70.40383 l 4.40535,-5.55253 17.89036,-14.97836 c 23.71739,-19.85693 36.78719,-29.65765 48.89037,-36.66171 l 10,-5.78695 10.31913,-4.04046 c 20.47226,-8.0159 57.01252,-15.51948 99.29925,-20.39121 l 5.61838,-0.64727 2.38162,-3.66347 2.38162,-3.663474 4.5,-3.026406 4.5,-3.026405 12.5,-4.284088 12.5,-4.284087 -24.5,0.435513 -24.5,0.435514 -9.93587,2.074763 c -5.46472,1.141119 -10.0879,1.922723 -10.27373,1.736898 -0.73213,-0.732137 21.99999,-6.862062 35.7096,-9.629419 l 14.5,-2.926902 14.72156,-1.533708 14.72156,-1.533709 18.77844,0.01071 18.77844,0.01071 14,1.484576 c 68.5796,7.272262 125.11903,30.752924 182.12904,75.637664 l 15.69432,12.35634 13.50172,13 c 37.49319,36.09997 45.64488,48.29165 63.51963,95 4.63053,12.1 10.44514,26.5 12.92136,32 8.84848,19.65359 14.87269,40.44906 18.39524,63.5 l 1.75739,11.5 0.0407,23.1658 c 0.0224,12.74119 0.12758,23.07926 0.23384,22.97348 0.10625,-0.10577 1.13387,-6.48038 2.28361,-14.1658 l 2.09043,-13.97348 0.66362,-16.5 0.66361,-16.5 0.81781,4 c 0.4498,2.2 1.09845,13.28021 1.44145,24.62268 l 0.62363,20.62269 -1.20403,12.87731 c -3.12799,33.45464 -13.0672,68.63436 -27.44105,97.12732 -4.38392,8.69013 -4.57119,8.79207 -3.3035,1.79817 l 0.98818,-5.45183 -0.91725,-3.19827 -0.91725,-3.19826 -7.99123,13.85533 c -10.849,18.81013 -25.47392,40.67316 -36.08558,53.94486 l -8.79528,11 -15.0552,15.02664 -15.05521,15.02664 -11,8.79564 c -53.99083,43.17125 -117.33657,69.87619 -190.5,80.30994 l -12.5,1.78261 -33.5,-3.5e-4 -33.5,-3.5e-4 -18,-2.77921 C 444.90242,690.26991 356.71074,629.15207 316.26022,539.45536 c -5.22154,-11.57846 -5.63172,-10.73146 -0.98319,2.03025 7.73397,21.23225 16.3545,38.0787 30.08846,58.79961 l 8.28508,12.5 7.44659,8.5 c 53.45858,61.02096 142.20479,100.03033 235.75542,103.6289 l 16.53701,0.63612 17.5,-1.1629 c 83.78254,-5.56742 155.46871,-32.9129 219,-83.53995 l 12.5,-9.96104 16.04539,-16.05057 16.04538,-16.05056 8.01289,-10.04511 c 11.21404,-14.05812 20.55339,-27.67484 29.05826,-42.36677 9.73447,-16.81603 9.73462,-16.81619 6.34424,-7.2144 -7.80486,22.10386 -35.71447,61.01686 -63.93948,89.14768 -57.04232,56.85194 -132.81884,93.79445 -215.56668,105.09288 l -15,2.04811 -28.5,0.3455 -28.5,0.34549 z m 61,-42.98266 18,-0.99629 14,-2.0323 C 820.44438,667.43935 933.53112,558.46151 951.02285,418.78522 l 1.25231,-10 v -21.5 -21.5 l -1.25231,-10 c -1.87222,-14.9502 -6.68204,-37.83306 -10.08928,-48 l -3.01616,-9 0.52907,3.5 c 0.29099,1.925 1.40833,9.18477 2.48298,16.13281 l 1.95391,12.63282 1.01962,16.98037 1.01962,16.98036 -1.03791,16.38682 c -2.85271,45.03967 -13.06559,82.73218 -32.9043,121.43938 l -7.71494,15.05257 -7.7016,11.6632 c -9.71029,14.70512 -20.76481,28.60326 -32.78906,41.22356 l -9.38521,9.85045 -10.37566,7.72846 c -5.70662,4.25065 -15.77356,10.96147 -22.37098,14.91293 -6.59742,3.95146 -15.41498,9.90196 -19.59458,13.22333 -19.46674,15.4695 -51.25726,34.33051 -74.93165,44.45621 -6.20008,2.65182 -10.83231,4.96834 -10.29386,5.14782 2.9857,0.99523 29.65216,-7.76883 44.06404,-14.48187 12.80827,-5.96608 10.31452,-3.97849 -4.99731,3.98299 -29.96227,15.57907 -59.7476,24.40285 -96.85603,28.69319 -9.15418,1.05838 -20.91897,2.57425 -26.14397,3.36862 -5.225,0.79437 -13.775,1.72495 -19,2.06797 -5.225,0.34301 -11.975,0.94638 -15,1.34083 l -5.5,0.71718 11,0.55233 c 6.05,0.30378 12.35,0.63264 14,0.73081 1.65,0.0982 11.1,-0.26985 21,-0.8178 z m -5.80122,-78.5025 c 41.21903,-5.36898 73.82204,-18.42184 109.19605,-43.71745 21.29806,-15.23004 25.4082,-20.60058 20.09455,-26.25669 l -2.01062,-2.14021 8.11101,-6.92424 c 28.61667,-24.42963 50.19073,-60.42245 58.39601,-97.42425 l 1.66315,-7.5 0.53542,-16 0.53542,-16 -1.61656,-9.28915 c -0.88911,-5.10903 -3.15731,-14.10903 -5.04045,-20 -1.88314,-5.89097 -4.60194,-16.11085 -6.0418,-22.71085 -9.79343,-44.89115 -12.32253,-49.88519 -41.81289,-82.56477 -35.72832,-39.59215 -56.16055,-56.54211 -82.70807,-68.61212 l -9.5,-4.31923 -13.5,0.18917 -13.5,0.18918 -9,-4.10679 c -11.49221,-5.24402 -22.39532,-8.61101 -35,-10.80835 l -10,-1.74328 -15.5,0.0287 -15.5,0.0287 -10.5,1.67705 c -14.43646,2.30579 -32.1205,6.94763 -47,12.33694 l -12.5,4.52745 -23.26367,11.81091 c -22.71755,11.53365 -28.93015,15.15512 -53.9199,31.43113 l -12.18357,7.93525 -0.0664,3.07 -0.0664,3.07 -3.36786,3.93 c -1.85233,2.1615 -6.36012,5.955 -10.01733,8.43 l -6.64946,4.5 -6.43362,11 c -11.9817,20.48589 -19.95637,39.95521 -23.5116,57.40098 l -2.02019,9.91325 v 7.46719 7.46719 l -1.48148,4.19896 c -0.81481,2.30943 -2.21595,8.1035 -3.11364,12.87573 l -1.63217,8.67676 0.0525,13 0.0525,13 1.96571,10.03925 c 2.81443,14.37382 5.93649,22.93848 17.26092,47.3513 31.21338,67.28881 55.78301,95.48469 103.39574,118.65603 l 13,6.32661 12.2187,4.05867 12.2187,4.05867 12.7813,2.43156 c 7.02971,1.33736 16.3813,3.11034 20.7813,3.93997 4.4,0.82962 11.22229,2.21017 15.16065,3.06788 12.04672,2.62359 20.0492,3.31186 40.03813,3.44356 l 19.19879,0.1265 z m -263.14092,-75.0061 -0.62725,-3.34353 -5.95945,-8.80661 c -3.27769,-4.84363 -8.87937,-12.38474 -12.44816,-16.75801 -3.5688,-4.37328 -7.72312,-10.30909 -9.23183,-13.1907 -1.50872,-2.8816 -2.89398,-5.08841 -3.07837,-4.90402 -0.42219,0.42218 8.89645,18.94806 15.96776,31.74463 2.94763,5.33417 7.60035,12.41792 10.33938,15.74167 l 4.98006,6.04318 0.34256,-1.59154 c 0.1884,-0.87535 0.0603,-3.09613 -0.2847,-4.93507 z m -29.11479,-36.34562 -6.4479,-12.88888 -4.41244,-13.36112 c -2.42685,-7.34862 -4.67258,-14.93612 -4.99052,-16.86112 l -0.57808,-3.5 2.49367,7 c 4.07082,11.42725 9.7647,25.56083 10.14449,25.18105 0.19436,-0.19437 -0.51319,-2.78962 -1.57233,-5.76722 -1.05915,-2.97761 -3.55278,-10.0831 -5.5414,-15.79 l -3.61567,-10.37616 -1.93258,-11.30435 -1.93257,-11.30435 -0.65223,-13.31949 -0.65223,-13.31948 1.18517,-13 c 1.61707,-17.73734 4.02382,-29.45276 9.47953,-46.14389 l 4.62311,-14.1439 5.35547,-10.8561 c 2.9455,-5.97086 8.15466,-15.13111 11.5759,-20.35611 l 6.22043,-9.5 -7.19494,7 c -7.90728,7.69304 -25.66787,27.49567 -28.33311,31.59074 l -1.68616,2.59075 -0.90115,9.40925 -0.90116,9.40926 -5.08818,19.11446 -5.08819,19.11447 0.003,5.88553 0.003,5.88554 2.4795,9 c 1.36372,4.95 3.4765,12.64049 4.69507,17.08997 l 2.21557,8.08997 -2.11124,2.684 -2.11123,2.684 1.02179,3.72603 c 5.44501,19.85555 16.56984,47.02064 24.97131,60.97603 6.94644,11.53849 6.75485,10.31174 -0.72448,-4.63888 z m 593.13548,-77.70377 2.42707,-4.09265 1.41994,-9.90735 c 0.78098,-5.44904 1.70235,-14.18235 2.04751,-19.40735 l 0.62755,-9.5 -1.07175,-11.94813 c -3.9834,-44.40793 -21.73018,-84.63191 -63.21664,-143.2838 -9.00273,-12.72769 -12.10931,-15.87569 -5.53529,-5.60909 12.18688,19.03215 23.91281,42.88593 31.13689,63.34102 2.03954,5.775 5.30944,14.775 7.26644,20 11.87459,31.70396 14.99131,42.29108 18.54646,63 l 2.14591,12.5 0.0637,22 0.0637,22 -0.74876,4.5 -0.74875,4.5 1.57449,-2 c 0.86597,-1.1 2.66668,-3.84169 4.00157,-6.09265 z M 322.52761,305.56734 c 1.78734,-4.22285 1.71841,-4.80932 -0.37076,-3.15456 l -1.73273,1.37244 1.92481,-3 c 1.05865,-1.65 5.593,-8.625 10.07634,-15.5 4.48335,-6.875 9.38967,-14.6375 10.90295,-17.25 l 2.75142,-4.75 h -1.02222 c -1.32862,0 -7.16783,7.08287 -7.16783,8.69446 0,0.68133 -1.99511,3.48517 -4.43358,6.23076 -6.95059,7.82599 -10.98832,15.6543 -14.94313,28.97157 l -1.60175,5.3937 2.12725,-1.89525 c 1.16998,-1.04238 2.74014,-3.34329 3.48923,-5.11312 z m 22.05912,-26.45094 c 5.11727,-7.80288 17.82681,-23.29691 22.82952,-27.83118 1.51706,-1.375 6.50966,-8.2375 11.09468,-15.25 l 8.3364,-12.75 1.27113,-0.17104 c 0.69912,-0.0941 2.34276,-0.20658 3.65252,-0.25 l 2.3814,-0.079 4.03365,-4.75162 c 5.81432,-6.84925 4.24722,-6.65775 -6.2357,0.76199 -14.94079,10.57505 -43.85921,36.48967 -40.71918,36.48967 0.43705,0 -0.0598,1.2375 -1.10403,2.75 -3.48608,5.04919 -18.28471,38.37161 -18.21984,41.02603 0.01,0.39818 1.73498,-2.20103 3.83389,-5.77603 2.09891,-3.575 6.07941,-9.95097 8.84556,-14.16882 z m 590.33102,5.24026 c -10.04107,-25.4744 -21.22921,-45.66117 -37.60022,-67.8421 l -8.65703,-11.72934 -14.13545,-14.03724 -14.13546,-14.03723 -13.57628,-10.16844 c -16.98566,-12.72201 -32.42308,-22.3439 -50.42372,-31.42826 -15.06395,-7.6023 -15.53568,-7.64876 -5.35666,-0.52762 3.65384,2.55619 9.72884,7.47762 13.5,10.93651 3.77116,3.45888 11.58166,9.84139 17.35666,14.18334 31.64821,23.7948 60.84607,55.75951 80.99978,88.67549 7.6815,12.54577 30.42172,40.08084 33.73563,40.84889 0.12947,0.03 -0.63879,-2.16329 -1.70725,-4.874 z M 400.90472,222.22599 c 4.11668,-3.05757 14.68487,-10.47297 23.48487,-16.47866 l 16,-10.91944 -1.57073,-0.31013 -1.57074,-0.31014 -8.24237,3.52788 c -4.53331,1.94034 -10.84481,5.05313 -14.02556,6.91732 l -5.78318,3.38943 -4.53633,4.87148 c -2.49499,2.67932 -6.95166,7.78212 -9.90371,11.33955 l -5.36738,6.46805 2.01513,-1.46805 c 1.10832,-0.80743 5.38332,-3.96971 9.5,-7.02729 z m 136.98487,-96.45381 2.5,-1.44217 -3.5,0.59897 c -1.925,0.32944 -5.075,0.94916 -7,1.37716 l -3.5,0.77818 4.5,0.065 4.5,0.065 2.5,-1.44217 z m 431.58656,224.26304 c -6.76507,-52.92254 -36.90056,-110.61627 -97.54618,-186.75 -8.98129,-11.275 -16.82704,-21.17027 -17.435,-21.98949 -1.8526,-2.49635 5.14324,3.52182 21.08202,18.1358 l 15.18739,13.92506 12.65722,13.88608 c 6.96147,7.63734 15.90474,17.95348 19.87394,22.92475 l 7.21672,9.03868 6.33865,11.1688 c 18.73188,33.00582 31.34013,75.8386 33.70603,114.50614 0.6732,11.00266 0.048,13.98435 -1.08079,5.15418 z"
         id="path2219" />
      <path
         style="fill:#fbae32;fill-opacity:1"
         d="m 584.38959,735.68415 c -27.83129,-2.77244 -42.31147,-5.08981 -62.16873,-9.94931 -26.78438,-6.55471 -51.1289,-15.63658 -75.83127,-28.2893 l -13,-6.6587 -16.20999,-10.74478 c -40.73638,-27.00207 -68.65707,-51.49159 -87.51107,-76.75684 l -7.83554,-10.5 -6.45904,-13 -6.45904,-13 -1.61543,-6 -1.61543,-6 -0.49514,-13.5 -0.49515,-13.5 0.95739,-6.97645 0.95738,-6.97645 -1.76068,-7.21824 c -0.96837,-3.97003 -2.93013,-9.69026 -4.35947,-12.71162 -1.42933,-3.02136 -2.61908,-6.08376 -2.64389,-6.80531 l -0.0451,-1.31193 -1.37368,3 -1.37368,3 -0.0812,-5.85539 -0.0812,-5.85538 -2.46728,-8.14462 c -1.35701,-4.47953 -3.15701,-12.14106 -4,-17.0256 l -1.53272,-8.88099 v -9.23802 -9.23802 l 1.46677,-8.41108 c 0.80672,-4.62609 2.23607,-10.42254 3.17632,-12.88099 l 1.70955,-4.46991 0.15299,-12.5 0.15299,-12.5 2.62882,-12.51462 c 6.20301,-29.52978 27.92211,-86.58135 33.81004,-88.81197 0.47413,-0.17962 4.0013,-5.35462 7.83815,-11.5 C 383.11924,191.41252 459.19045,144.90687 562.27617,126.742 l 9.88658,-1.74213 -2.38658,-1.90987 -2.38658,-1.90987 -8,0.59652 c -4.4,0.32809 -9.03336,0.85575 -10.29635,1.17259 l -2.29635,0.57606 1.70134,1.87996 c 0.93573,1.03398 1.42918,1.87996 1.09654,1.87996 -0.33264,0 -8.74997,1.575 -18.70518,3.5 -9.95521,1.925 -19.13394,3.5 -20.39718,3.5 h -2.2968 l -2.33742,2.02723 c -2.86442,2.4843 -5.64552,3.23896 -10.08023,2.7353 l -3.38837,-0.38482 6.25206,-2.85347 c 3.43863,-1.5694 6.06273,-3.04278 5.83134,-3.27418 -1.82707,-1.82706 -37.73479,12.17688 -58.87517,22.9612 l -15.79178,8.05585 -13.20822,8.69235 c -7.26453,4.7808 -16.58323,11.36812 -20.70823,14.6385 -4.125,3.27037 -10.65,8.16193 -14.5,10.87012 l -7,4.92398 -9.53964,9.55397 c -11.10235,11.11902 -23.1115,25.96581 -36.65093,45.31116 -5.29561,7.56645 -9.81103,13.57454 -10.03427,13.3513 -2.63818,-2.63818 26.18997,-56.20535 40.6028,-75.44629 l 5.49654,-7.3378 14.56275,-12.22175 c 54.65078,-45.86551 70.41679,-53.66528 128.56264,-63.60263 13.04427,-2.22932 47.25203,-7.00002 50.1928,-7.00002 0.16902,0 0.30731,-0.64047 0.30731,-1.42327 0,-0.78281 1.10188,-2.73278 2.44861,-4.33329 l 2.44862,-2.910011 6.30138,-3.363254 c 3.46577,-1.84979 10.76489,-4.776889 16.22027,-6.504665 l 9.91888,-3.141411 -11.45642,-0.654323 -11.45641,-0.654323 -13.46247,1.023673 -13.46246,1.023673 -9.45467,1.930595 c -5.20007,1.061827 -9.60617,1.779096 -9.79134,1.593931 -1.35445,-1.354456 39.17031,-10.646419 57.87828,-13.270967 l 12.36773,-1.735074 28,0.0026 28,0.0026 13,1.795202 c 49.15817,6.788374 92.82166,21.927423 133.87795,46.418304 l 12.90839,7.70001 14.94046,11.27008 c 28.59121,21.56728 44.6314,36.17954 66.06393,60.18279 l 12.01208,13.45286 4.47505,6.91772 c 6.25485,9.66901 12.64149,23.65979 22.21202,48.65841 4.52329,11.81502 10.17651,25.82584 12.56271,31.13516 11.49436,25.57505 17.84392,50.43189 20.53346,80.38298 l 1.16737,13 -0.52277,15.5 -0.52277,15.5 0.82231,-3.5 c 0.45227,-1.925 1.54644,-8.225 2.4315,-14 l 1.6092,-10.5 0.65574,-17 0.65574,-17 0.95219,4.5 0.95219,4.5 0.0941,26.5 0.0941,26.5 -1.78691,11.5 c -4.8459,31.18667 -16.31241,67.44668 -27.98638,88.5 l -1.66349,3 0.60923,-5.67056 0.60923,-5.67057 -0.6474,-2.57943 c -0.96472,-3.84378 -1.86643,-3.21501 -5.26387,3.67056 -50.33612,102.01593 -158.17294,175.34576 -281.34536,191.31693 l -12.5,1.62081 -24.20773,0.53681 -24.20773,0.5368 -12.79227,-1.17818 c -51.45405,-4.73896 -93.20449,-16.26378 -133.79227,-36.93208 l -15,-7.63838 -14.55677,-9.65131 c -47.49784,-31.49164 -83.01941,-72.24608 -103.09268,-118.2798 -5.73403,-13.14975 -6.19208,-12.62929 -1.28708,1.46242 7.87535,22.62529 16.39675,39.34349 31.83026,62.44805 l 10.02508,15.00793 14.0406,14.09829 14.04059,14.09829 9.5,7.48719 c 49.22662,38.79677 106.29145,62.11061 172.5,70.4749 l 14,1.76865 27,0.021 27,0.021 13,-1.32064 c 78.06826,-7.93074 149.55158,-38.04269 209.5,-88.25068 l 11.5,-9.63148 13.5,-13.90496 c 21.29365,-21.9324 38.51371,-44.77471 51.89731,-68.8415 6.72184,-12.08741 7.69822,-12.33787 3.07359,-0.78841 -8.55058,21.35404 -36.88066,60.27411 -62.43718,85.77665 -57.35217,57.23101 -133.58122,94.32698 -216.96288,105.58244 l -15.07084,2.03437 -27,0.33614 c -14.85,0.18488 -28.8,0.15683 -31,-0.0623 z m 75.392,-44.95129 C 767.80575,678.20582 859.51386,620.81629 912.48595,532.59432 l 9.12124,-15.1909 5.77907,-12.8091 5.77908,-12.8091 5.2821,-16 5.2821,-16 3.02356,-15 c 1.66295,-8.25 3.59803,-19.5 4.30017,-25 l 1.27661,-10 -0.0526,-24 -0.0526,-24 -2.16183,-14 c -2.89844,-18.77022 -11.37864,-52.62802 -12.82039,-51.18627 -0.21348,0.21348 0.25811,3.49272 1.04798,7.28721 0.78987,3.79448 2.25494,12.07406 3.25571,18.39906 l 1.81958,11.5 0.009,30.5 0.009,30.5 -1.80841,11.5 c -13.87617,88.24088 -56.34463,157.28987 -121.11329,196.91674 -6.55968,4.01336 -16.45968,10.77515 -22,15.02622 -23.13879,17.7543 -48.93429,32.74924 -76.5733,44.51209 -12.1259,5.16065 -12.00208,5.42082 1,2.10127 12.30652,-3.14197 25.36087,-7.74778 36,-12.70147 11.87054,-5.52705 8.81455,-3.16178 -5.10326,3.94982 -28.57338,14.60016 -59.76794,23.90197 -92.95917,27.7192 -7.39066,0.84998 -19.51257,2.41431 -26.93757,3.47628 -7.425,1.06198 -17.775,2.18929 -23,2.50515 -5.225,0.31585 -11.975,0.89011 -15,1.27614 l -5.5,0.70186 9,0.64167 c 4.95,0.35291 17.7264,0.44886 28.392,0.21321 l 19.39199,-0.42845 12.60801,-1.46209 z m -25.392,-77.08038 c 45.90659,-6.20369 103.16161,-32.72685 125.54869,-58.15992 l 3.95131,-4.48892 v -2.54476 -2.54476 l -1.96272,-2.08922 -1.96273,-2.08923 8.6352,-7.45687 c 11.23153,-9.69893 22.63867,-22.78459 31.81248,-36.49358 l 7.36099,-11 5.50319,-11.5 c 6.12659,-12.80273 9.78424,-23.08663 12.77228,-35.9107 l 2.00133,-8.5893 0.53366,-17 0.53366,-17 -1.68596,-8.96372 c -0.92728,-4.93004 -3.00201,-13.07214 -4.61051,-18.09355 -1.6085,-5.02141 -4.73499,-17.18774 -6.94776,-27.03628 -6.65944,-29.63965 -11.69648,-43.70092 -19.59091,-54.68938 -5.46569,-7.60784 -37.57282,-42.71272 -50.51017,-55.22615 l -11.38203,-11.00908 -10.72177,-8.04643 c -12.07925,-9.06519 -22.00262,-14.99574 -33.46553,-20.00016 l -7.8127,-3.41083 -13.52844,-0.0122 -13.52844,-0.0122 -10.47156,-4.62085 -10.47156,-4.62085 -11,-2.78862 -11,-2.78862 -12,-1.19158 -12,-1.19158 -10,0.64401 c -45.45318,2.92719 -91.66761,20.8416 -147.70238,57.25484 l -19.70237,12.80325 -0.0476,2.8561 -0.0476,2.85609 -3.08095,3.89002 -3.08095,3.89002 -7.25514,5.01547 -7.25513,5.01547 -6.12692,10.73841 c -16.18592,28.36835 -24.44409,52.5069 -25.56921,74.7384 l -0.45548,9 -2.04685,7.33093 c -1.12577,4.03201 -2.55485,11.90701 -3.17574,17.5 l -1.12888,10.16907 0.67739,8.5 c 1.93223,24.24606 8.89556,43.99178 31.11661,88.23654 32.97991,65.66694 81.61426,101.60644 153.8812,113.71416 6.6,1.10577 17.4,3.1315 24,4.50161 6.6,1.37011 16.95,2.91683 23,3.43715 l 11,0.94604 14,-0.49086 c 7.7,-0.26998 18.95,-1.1598 25,-1.97738 z M 369.01437,537.30737 c -1.28495,-4.2888 -8.62108,-15.45547 -15.12478,-23.02215 -2.60004,-3.025 -6.79705,-8.59643 -9.32668,-12.38095 l -4.59933,-6.88096 -2.49864,-6.61904 c -12.14084,-32.16181 -14.42442,-41.8784 -16.1268,-68.61905 l -0.63662,-10 1.12293,-13.84897 c 0.61762,-7.61694 2.03215,-18.56042 3.14341,-24.31885 l 2.02048,-10.46987 4.49052,-13.68115 4.49053,-13.68116 5.37469,-11 c 2.95608,-6.05 8.24529,-15.33601 11.7538,-20.63557 l 6.3791,-9.63556 -4.87822,4.11337 c -3.86646,3.26025 -25.84484,27.53908 -31.37672,34.66088 l -1.16756,1.50312 -1.11156,9.99688 -1.11157,9.99688 -4.97088,19.09905 -4.97088,19.09906 v 6.46245 6.46245 l 4.5,15.82192 c 5.18986,18.24745 5.11921,17.68472 2.51618,20.04043 l -1.98383,1.79534 0.59671,2.60965 c 0.32818,1.43531 2.16145,7.10965 4.07391,12.60965 1.91246,5.5 5.24941,15.13596 7.41544,21.41325 l 3.93824,11.41324 4.96185,8.80197 c 4.85465,8.61182 11.81146,19.87154 12.27761,19.87154 0.12906,0 -3.19475,-6.91539 -7.38624,-15.36753 l -7.62088,-15.36752 -4.02802,-12.38248 c -2.21541,-6.81036 -4.31206,-13.95747 -4.65921,-15.88247 l -0.63118,-3.5 4.3448,12 c 6.15259,16.99297 9.5534,24.61336 19.85942,44.5 9.65591,18.63218 10.94865,20.75524 17.2769,28.37363 l 4.0483,4.87364 0.34656,-2.32969 c 0.1906,-1.28133 -0.1342,-3.93427 -0.72178,-5.89543 z M 935.89496,419.25398 c 0.52465,-1.94218 1.50144,-7.11718 2.17065,-11.5 l 1.21675,-7.96876 -0.0501,-17 -0.0501,-17 -1.60875,-9.5 c -3.88345,-22.93267 -9.85225,-40.52756 -22.21986,-65.5 l -8.41926,-17 -8.91005,-14.15973 c -9.03877,-14.3643 -27.53666,-41.31335 -31.25291,-45.53148 l -2.03409,-2.30879 0.76844,1.5 c 0.42264,0.825 3.67615,6.21964 7.23003,11.98808 13.14765,21.34049 21.35682,38.93078 31.74032,68.01192 3.43663,9.625 8.12332,22.43387 10.41486,28.46415 5.31206,13.97887 10.39849,33.81579 12.58622,49.08584 l 1.71207,11.95001 0.10022,17 c 0.0551,9.35 -0.25298,20.825 -0.68466,25.5 l -0.78489,8.5 3.56062,-5.5 c 1.95834,-3.025 3.98988,-7.08906 4.51452,-9.03124 z M 322.52761,305.56734 c 1.62337,-3.83545 1.69725,-4.60736 0.36198,-3.78212 -1.77168,1.09496 -1.07875,-0.38575 2.53342,-5.41362 1.94337,-2.70504 7.36234,-11.13726 12.04215,-18.73827 l 8.50873,-13.82001 -1.05965,-0.35322 -1.05965,-0.35322 -2.03679,2.33917 c -1.12023,1.28654 -2.73782,3.91417 -3.59463,5.83917 -0.85681,1.925 -3.23912,5.32839 -5.29402,7.5631 -6.17234,6.71241 -10.55121,15.31862 -14.41627,28.33369 l -1.60175,5.3937 2.12725,-1.89525 c 1.16998,-1.04238 2.74014,-3.34329 3.48923,-5.11312 z m 20.39282,-23.67542 6.53085,-10.29766 8.11201,-9.40452 c 4.4616,-5.17249 9.28589,-10.49609 10.72063,-11.83022 1.43475,-1.33414 6.21044,-7.92445 10.61266,-14.64513 l 8.00403,-12.21942 1.57395,-0.60398 c 0.86568,-0.33219 2.5507,-0.36256 3.74449,-0.0675 l 2.17054,0.5365 4.25,-5.4622 c 5.71293,-7.3424 5.44828,-7.48213 -3.16409,-1.67056 -15.79212,10.65641 -46.08709,37.35735 -45.31345,39.93771 0.10228,0.34114 -2.20237,5.53751 -5.12145,11.54749 -5.5886,11.50614 -11.47914,25.36415 -12.57032,29.57279 l -0.64819,2.5 2.28375,-3.79782 c 1.25607,-2.0888 5.22263,-8.43177 8.81459,-14.09548 z m 591.86327,1.6433 c -1.1428,-3.1625 -5.58918,-12.95 -9.88085,-21.75 l -7.80303,-16 -7.44622,-11.6003 c -27.78242,-43.28164 -74.07266,-82.70525 -121.62623,-103.58437 -6.53023,-2.8672 -6.15049,-2.38181 3.35058,4.2827 3.84361,2.69608 9.91861,7.64614 13.5,11.00013 3.5814,3.35399 11.53018,9.87899 17.66395,14.5 32.74647,24.67029 59.09035,53.92582 82.43902,91.5506 l 6.91854,11.14876 12.24507,13.07803 c 6.73478,7.19292 12.35124,13.08848 12.48102,13.10124 0.12979,0.0128 -0.69905,-2.56429 -1.84185,-5.72679 z M 400.27991,222.83965 c 4.61227,-3.47866 15.17518,-10.9015 23.47314,-16.49522 8.29797,-5.59371 15.39328,-10.66561 15.76737,-11.2709 l 0.68015,-1.10051 -3.40549,0.67048 c -1.87302,0.36876 -8.58049,3.19444 -14.90549,6.27929 l -11.5,5.60881 -4.33302,4.62681 c -5.97051,6.37532 -16.89559,19.69515 -15.39198,18.76587 0.67616,-0.41789 5.00306,-3.60598 9.61532,-7.08463 z m 137.74487,-97.06766 3.36481,-1.51324 -4.51622,0.59172 c -2.48392,0.32545 -6.08392,0.96034 -8,1.41087 l -3.48378,0.81916 4.63519,0.10236 4.63519,0.10236 z m 431.01437,221.01323 c -9.59559,-56.84408 -38.00641,-110.29476 -98.57872,-185.46099 -18.05533,-22.40548 -18.1357,-22.52625 -10.76603,-16.17775 64.41257,55.48733 92.60299,98.95029 105.72483,163.00268 2.68807,13.12141 5.76625,38.35717 5.2869,43.3434 l -0.31654,3.29266 z"
         id="path2217" />
      <path
         style="fill:#fbae32;fill-opacity:1"
         d="m 587.38959,735.62612 c -83.77275,-6.76246 -142.13489,-30.34751 -211,-85.26839 l -12,-9.57017 -13.0234,-13.00117 -13.0234,-13.00117 -7.05204,-9.5 c -11.70452,-15.76746 -17.62371,-26.59761 -22.55217,-41.26291 l -3.10425,-9.23709 -0.48203,-13 -0.48203,-13 1.06469,-7.5 1.06468,-7.5 -2.00463,-7.86089 c -1.10254,-4.32348 -2.60715,-8.82348 -3.34357,-10 -0.73642,-1.17651 -1.89756,-3.898 -2.58031,-6.04776 l -1.24136,-3.90865 -1.33465,2.40865 -1.33466,2.40865 -0.0354,-5.23948 -0.0354,-5.23947 -2.90853,-10.3582 -2.90853,-10.35819 -1.23353,-9.80002 -1.23353,-9.80002 0.60019,-9.60231 0.6002,-9.60231 2.65102,-9.5 2.65101,-9.5 0.20664,-12 0.20663,-12 3.13252,-15 3.13253,-15 4.55768,-14.14812 c 7.18877,-22.31561 19.89882,-50.82676 25.82768,-57.93653 1.33711,-1.60344 5.05641,-7.17241 8.26511,-12.37548 19.81361,-32.12879 48.50928,-60.95175 83.73112,-84.10253 l 11.77821,-7.74164 15.72179,-7.9945 c 38.53555,-19.59524 69.78363,-29.61288 116.0626,-37.20782 l 7.34081,-1.20472 -3.31165,-2.01393 -3.31164,-2.01393 -8.34784,0.67734 c -4.59132,0.37254 -9.01137,0.93196 -9.82234,1.24315 l -1.47449,0.56582 1.56696,1.73147 1.56696,1.73148 -11.20272,2.23202 c -9.23671,1.84031 -32.52053,6.02697 -33.65388,6.05129 -0.16996,0.004 -0.0716,0.39083 0.21865,0.8604 l 0.52766,0.85377 -2.5157,1.14623 c -1.38363,0.63043 -4.32108,1.14623 -6.52766,1.14623 h -4.01196 l 0.50677,-0.81998 c 0.27873,-0.45099 3.68275,-2.09852 7.56449,-3.66119 10.50284,-4.22811 7.74322,-4.23864 -5.64703,-0.0215 -35.59559,11.21038 -72.24792,30.38196 -98.8878,51.72481 -4.44488,3.56107 -10.96988,8.41827 -14.5,10.79378 l -6.4184,4.3191 -11,11.08251 -11,11.08252 -9.28842,12 c -5.10863,6.6 -12.96287,17.27075 -17.45388,23.71278 -4.491,6.44204 -8.31754,11.56071 -8.50341,11.37484 -2.53515,-2.53515 26.96204,-57.13482 40.75777,-75.44313 l 5.76087,-7.64525 18.6811,-15.49962 c 10.27461,-8.52479 23.87856,-19.40043 30.23099,-24.16808 l 11.54988,-8.66846 11.63255,-5.9874 c 23.64195,-12.16876 58.22605,-20.76834 105.13255,-26.14195 5.225,-0.59857 10.9625,-1.32143 12.75,-1.60634 l 3.25,-0.51802 v -1.37796 c 0,-0.75788 1.17423,-2.77345 2.6094,-4.47906 l 2.60941,-3.101101 8.14059,-3.934062 8.1406,-3.934063 8.5,-2.291562 8.5,-2.291562 -8.5,-0.796962 -8.5,-0.796961 -13.00912,0.560253 c -7.15501,0.308139 -17.46729,1.229495 -22.91617,2.047457 -5.44888,0.817962 -10.13228,1.261981 -10.40755,0.986708 -0.27527,-0.275272 -0.2309,-0.500495 0.0986,-0.500495 0.3295,0 5.917,-1.377003 12.41667,-3.060007 16.17867,-4.189255 36.81009,-7.546474 55.31758,-9.00148 l 15.5,-1.218566 17.5,0.612568 c 99.19613,3.472251 186.43815,46.346825 258.76288,127.167485 l 13.42318,15 5.31887,9.00118 c 6.48056,10.96714 10.14874,19.22542 21.50589,48.41683 4.83214,12.42009 10.4442,26.17719 12.47126,30.57132 2.02706,4.39414 5.65643,13.88842 8.06526,21.09841 l 4.3797,13.10907 2.49818,12.40159 c 1.374,6.82088 3.04931,16.6766 3.72292,21.9016 l 1.22475,9.5 0.0234,19.5 c 0.0129,10.725 -0.2681,21.75 -0.62443,24.5 l -0.64786,5 1.37148,-5.5 c 0.75432,-3.025 2.09814,-10.225 2.98627,-16 l 1.61478,-10.5 0.6338,-16.5 0.63379,-16.5 0.78866,3.5 c 0.43376,1.925 1.08933,11.375 1.45681,21 l 0.66815,17.5 -1.21529,14 c -2.11528,24.3678 -6.96189,47.69796 -14.14673,68.09817 -3.30904,9.39549 -14.50563,35.33607 -15.84523,36.71069 l -0.78826,0.80887 0.48089,-5.00464 c 0.98087,-10.20817 -1.13941,-12.64818 -4.66033,-5.36309 -2.6945,5.57515 -15.14352,26.32303 -22.65053,37.75 -7.99179,12.16488 -18.88584,26.11638 -30.66474,39.2709 l -10.63676,11.87897 -11.3254,10.0894 c -58.62465,52.22664 -127.36169,83.19715 -208.32536,93.86416 l -11,1.44925 -22.59212,0.61886 -22.59213,0.61886 -14.31851,-1.22062 C 456.68079,699.51094 354.43848,632.04711 313.26201,531.78522 c -4.31629,-10.50986 -4.2531,-8.16215 0.13316,4.94791 8.67835,25.93863 22.94902,52.82591 40.07879,75.51222 l 7.20328,9.53987 12.35617,12.03134 c 15.30302,14.90071 25.24864,22.90998 43.86104,35.32156 l 14.50486,9.67249 15.99514,8.13114 c 37.98072,19.30754 73.18802,30.03425 117.99514,35.94992 l 11,1.45227 23,0.5926 23,0.5926 19.5,-1.68681 19.5,-1.6868 14.23971,-2.43958 c 65.13987,-11.15991 129.1095,-40.70131 179.41703,-82.85541 l 12.34326,-10.34277 14.07994,-14.36627 c 20.93137,-21.35705 38.09439,-43.89657 51.29693,-67.36628 2.78455,-4.95 5.4917,-9.675 6.01588,-10.5 l 0.95306,-1.5 -0.50869,2.5 c -0.27979,1.375 -3.17405,7.9 -6.43171,14.5 l -5.92302,12 -11.74119,16.68371 c -39.99882,56.8365 -89.64517,97.63606 -152.51845,125.34023 l -15.13491,6.66897 -19.04392,6.32048 -19.04392,6.32047 -15.5,3.54524 c -17.87871,4.0893 -37.74358,7.08019 -56.94989,8.57447 l -13.4499,1.04643 -16.0501,-0.1681 c -8.82756,-0.0925 -17.85011,-0.31341 -20.05011,-0.491 z m 73.5,-44.86606 C 811.14898,673.05213 928.60904,566.38263 950.03369,428.1784 l 2.23125,-14.39318 0.0323,-26 0.0323,-26 -1.76838,-12 c -2.33835,-15.86772 -5.96302,-31.93219 -10.2836,-45.57668 -3.96803,-12.53116 -4.95853,-13.75754 -2.75577,-3.41205 0.81843,3.8438 2.39562,12.83873 3.50489,19.98873 l 2.01683,13 0.55839,22.15818 0.55839,22.15818 -1.18111,12.84182 c -6.48198,70.47657 -35.8736,134.9578 -83.09804,182.30584 l -10.50851,10.53598 -9.24222,6.5 c -5.08322,3.575 -14.0794,9.45354 -19.99152,13.06343 -5.91211,3.60988 -16.20971,10.70311 -22.88354,15.76274 -21.95182,16.6423 -53.31066,34.61855 -77.25579,44.28636 l -8.39004,3.38747 1.39004,0.27352 c 2.51174,0.49424 26.74719,-6.65032 36.66926,-10.81003 14.49866,-6.07838 14.18129,-5.72162 -2.15499,2.42245 l -14.87576,7.41595 -15.12424,5.00967 c -18.10708,5.99768 -33.72539,9.62788 -50.62424,11.7667 -6.875,0.87014 -20.57728,2.68667 -30.4495,4.03674 -9.87223,1.35006 -22.92223,2.68791 -29,2.97299 -6.07778,0.28509 -12.6255,0.82376 -14.5505,1.19706 l -3.5,0.67872 8,0.65926 c 4.4,0.36259 17.45,0.49804 29,0.30101 l 21,-0.35824 z m -25.97176,-77.00927 c 25.05948,-3.46607 47.81536,-10.37002 70.47176,-21.38058 l 14,-6.80372 10.5,-7.11745 c 18.28739,-12.39614 24.3713,-16.98615 29.25,-22.06766 l 4.75,-4.94747 v -3.07434 -3.07435 l -1.9036,-1.9036 -1.90361,-1.90361 6.35872,-5.15911 c 30.18279,-24.48865 54.31099,-65.60072 61.05617,-104.03368 l 1.66729,-9.5 0.006,-13.5 0.006,-13.5 -1.66254,-8.68222 c -0.91439,-4.77523 -2.81775,-12.20023 -4.22969,-16.5 -1.41291,-4.29978 -4.77749,-17.26778 -7.47782,-28.81778 -10.01478,-42.83581 -11.93783,-46.56187 -39.99849,-77.5 -36.62159,-40.37695 -55.00534,-55.90046 -81.18184,-68.55116 l -11.23659,-5.43047 -13.86792,-0.009 -13.86793,-0.009 -8.63207,-3.88196 c -11.02783,-4.95936 -22.93337,-8.70624 -34.49639,-10.85661 l -9.13569,-1.69896 -17.5,0.058 -17.5,0.0581 -9.95705,1.69576 c -26.86945,4.57607 -56.58151,14.8868 -81.54295,28.29718 -4.675,2.51162 -12.325,6.61291 -17,9.11398 -10.69831,5.72348 -12.88908,7.06631 -32.74799,20.07289 l -16.24799,10.64125 -0.002,2.44625 -0.002,2.44625 -2.67253,3.85645 -2.67252,3.85646 -7.57748,5.34214 -7.57747,5.34214 -4.74432,7.98124 c -16.51395,27.78094 -25.66891,53.65553 -27.32524,77.22907 l -0.66749,9.5 -1.85148,7 c -1.01831,3.85 -2.36675,11.275 -2.99653,16.5 l -1.14505,9.5 0.67711,9.98643 c 1.69599,25.01325 8.08082,43.09801 31.61359,89.54419 33.34731,65.81692 83.54219,102.53925 154.93939,113.35289 5.225,0.79137 14.96771,2.60854 21.65046,4.03817 6.68276,1.42962 16.80776,3.01488 22.5,3.52279 l 10.34954,0.92346 15.02824,-0.40783 15.02824,-0.40783 z M 367.80892,534.1055 c -3.05796,-6.02422 -7.36628,-12.22079 -13.78053,-19.82028 -3.01743,-3.575 -7.51335,-9.6279 -9.99092,-13.45088 l -4.50467,-6.95088 -3.46061,-9.54912 c -7.78069,-21.46985 -9.43772,-26.80162 -11.27483,-36.27858 l -1.92261,-9.918 -0.93168,-13.13989 -0.93168,-13.13989 0.93779,-13.94692 c 1.44242,-21.45202 3.19543,-30.40721 10.10591,-51.62584 l 4.071,-12.5 4.8061,-10 c 2.64336,-5.5 8.00686,-14.88855 11.91889,-20.86345 l 7.1128,-10.86344 -3.78715,3.03319 c -4.92529,3.94476 -10.60268,9.94541 -23.50666,24.84508 l -10.52381,12.15139 -0.58842,4.34861 c -0.32363,2.39174 -0.87751,7.04862 -1.23086,10.34862 -0.35335,3.3 -2.89765,14.55 -5.654,25 l -5.01155,19 -0.0109,6.08681 -0.0109,6.0868 4.79341,17.16948 4.79341,17.16948 -2.27186,2.41828 -2.27186,2.41829 3.01307,9.32543 c 1.65719,5.12899 5.2845,15.77699 8.0607,23.66223 l 5.04764,14.33681 4.18748,7.66319 c 4.05296,7.41699 13.81378,23.1632 14.35849,23.1632 0.14735,0 -3.1858,-6.8625 -7.407,-15.25 -7.42162,-14.74673 -14.11251,-31.52819 -15.4499,-38.75 l -0.64816,-3.5 3.97719,10.26648 c 5.39276,13.92053 11.97819,27.88949 21.39153,45.37557 l 7.88231,14.64204 5.14678,6.35796 5.14677,6.35795 0.30618,-3.67972 0.30617,-3.67973 z M 937.33117,412.78522 c 0.85847,-4.95 1.83895,-14.625 2.17883,-21.5 l 0.61796,-12.5 -1.15936,-11.5 c -1.47366,-14.61759 -5.12698,-31.0022 -10.22291,-45.84828 l -3.99948,-11.65172 -6.88584,-14.29807 c -7.34379,-15.24894 -17.52099,-33.04003 -27.28738,-47.70193 -10.66164,-16.00589 -23.69273,-34.26457 -25.44311,-35.64994 l -1.70577,-1.35006 1.93875,3 c 21.88322,33.86188 28.77471,49.16921 51.09871,113.5 l 5.37879,15.5 2.44026,11.5 c 1.34215,6.325 2.99397,15.775 3.67073,21 l 1.23047,9.5 0.10389,14.5 c 0.0571,7.975 -0.23952,19 -0.65922,24.5 l -0.7631,10 3.95345,-6 3.95346,-6 z m -614.76685,-106.8379 1.46998,-2.84261 -0.54012,-1.40754 -0.54013,-1.40754 8.31138,-12.7522 c 4.57126,-7.01372 9.54951,-14.88971 11.06279,-17.50221 3.98214,-6.87471 3.95007,-5.84962 -0.0939,3 -4.74408,10.38181 -11.51503,27.41307 -11.07378,27.85433 0.19498,0.19497 2.20855,-2.89874 4.47461,-6.87491 2.26605,-3.97618 6.56775,-10.96596 9.55932,-15.53284 l 5.43922,-8.30341 10.50332,-11.79419 10.50332,-11.79419 7.24474,-10.90239 c 3.98461,-5.99632 7.92114,-11.44256 8.74785,-12.10275 l 1.5031,-1.20036 2.62676,0.50892 2.62677,0.50893 4.35606,-5.61918 c 2.39583,-3.09054 4.18496,-5.79027 3.97584,-5.99939 -2.31024,-2.31024 -53.62283,40.95001 -52.57544,44.32492 0.13395,0.43161 -0.61377,2.3875 -1.6616,4.34643 l -1.90513,3.5617 -1.6613,-0.43444 -1.66131,-0.43444 -2.68356,3.87238 c -1.47596,2.12981 -2.68356,4.40593 -2.68356,5.05804 0,0.65212 -2.23827,3.65724 -4.97393,6.67806 l -4.97393,5.49238 -2.67192,5.2682 c -2.21708,4.37138 -8.38022,21.00024 -8.38022,22.61078 0,1.12617 4.34146,-3.6022 5.67473,-6.18048 z M 933.33553,279.72074 C 906.85597,214.03824 844.80824,151.47099 783.02873,128.15541 l -2.63914,-0.99601 1,0.90786 c 0.55,0.49933 4.44575,3.25498 8.65723,6.12367 4.21147,2.8687 10.97004,8.23568 15.01905,11.92663 4.049,3.69095 12.9664,10.97611 19.81643,16.18924 l 12.4546,9.47842 13.44141,13 c 21.93119,21.21098 39.52701,43.07003 54.07856,67.18107 l 6.14451,10.18108 12.62266,13.55703 c 14.62162,15.70395 14.38361,15.60552 9.71149,4.01634 z M 407.01186,218.21026 c 7.35775,-5.26622 17.62498,-12.46622 22.81606,-16 5.19108,-3.53377 9.61181,-6.97474 9.82385,-7.64659 l 0.38552,-1.22154 -5.51518,1.8975 c -3.03336,1.04362 -10.03638,4.21988 -15.56229,7.05834 l -10.04711,5.16085 -8.20039,9.6632 c -4.51021,5.31476 -8.90292,10.54789 -9.76156,11.62917 l -1.56117,1.96597 2.12227,-1.46597 c 1.16725,-0.80628 8.14225,-5.7747 15.5,-11.04093 z m 131.37773,-92.38893 3,-1.37367 -2,-0.0376 c -1.1,-0.0207 -4.7,0.57167 -8,1.31631 l -6,1.35389 5,0.0574 5,0.0574 3,-1.37367 z m 431.5,225.3343 c 0,-39.98644 -39.02064,-114.80648 -98.63877,-189.1347 -8.0447,-10.02964 -15.12949,-18.90986 -15.74398,-19.73382 -7.03922,-9.43885 45.32965,41.68193 58.74038,57.34044 24.02887,28.05636 38.87873,57.97309 48.72284,98.15767 4.14306,16.9124 9.37402,55.5 7.52361,55.5 -0.33224,0 -0.60408,-0.95832 -0.60408,-2.12959 z"
         id="path2215" />
      <path
         style="fill:#fbae32;fill-opacity:1"
         d="m 589.88959,735.60356 c -50.10395,-2.83944 -98.20909,-15.64133 -141.5,-37.65641 l -16,-8.13661 -16,-10.63057 c -28.84207,-19.16299 -48.87512,-35.13623 -66.78317,-53.24922 l -10.78317,-10.90657 -7.38181,-9.79944 c -9.34749,-12.40889 -14.92903,-21.92854 -19.88062,-33.90758 l -3.91367,-9.46806 -1.34389,-7.53194 -1.34389,-7.53194 -0.0349,-8.52623 c -0.0192,-4.68943 0.4266,-12.20671 0.99065,-16.70506 l 1.02554,-8.17882 -1.94033,-7.29495 c -1.06717,-4.01222 -3.28311,-10.21994 -4.9243,-13.79494 l -2.98398,-6.5 -0.85123,0.27863 -0.85124,0.27863 -0.60031,-4.77863 c -0.33017,-2.62825 -1.79422,-9.05363 -3.25345,-14.27863 l -2.65314,-9.5 -1.16984,-11.1443 -1.16984,-11.1443 1.15813,-9.42388 1.15812,-9.42389 2.93248,-10.18935 2.93247,-10.18936 -1.02259,-3.70354 -1.0226,-3.70354 0.65734,-6.03892 c 2.89643,-26.60943 13.32728,-60.64844 27.59135,-90.03892 l 6.79461,-14 3.83364,-5.18105 c 2.1085,-2.84958 6.83608,-9.86509 10.50574,-15.59002 3.66966,-5.72493 10.69208,-15.31846 15.60538,-21.31895 l 8.93328,-10.90998 11.91075,-11.53771 c 13.96031,-13.52307 25.88661,-22.99166 43.99334,-34.92744 l 13.11486,-8.64519 13.88514,-7.10235 c 25.44898,-13.01733 54.83001,-24.12633 78.76977,-29.78295 8.56386,-2.02351 42.36521,-8.488 44.5018,-8.51095 0.33746,-0.004 -0.73643,-0.93618 -2.38643,-2.07235 l -3,-2.06577 -9.06708,0.53355 c -4.9869,0.29345 -9.81788,0.82165 -10.73552,1.17379 l -1.66844,0.64023 2.13036,1.72506 2.13036,1.72506 -11.89484,2.28108 c -6.54216,1.25459 -16.44968,3.07501 -22.0167,4.04537 l -10.12186,1.76429 -2.12814,2.12814 -2.12814,2.12814 -4.75,-0.0304 -4.75,-0.0304 2,-1.17142 c 1.1,-0.64428 5.375,-2.6501 9.5,-4.45738 9.47941,-4.1532 8.29614,-4.14066 -5.5,0.0583 -34.69985,10.56119 -68.95037,27.87946 -97.43497,49.26656 -5.7611,4.32561 -14.09504,10.49027 -18.51988,13.69925 -15.87014,11.50936 -34.94455,32.77214 -54.20668,60.42573 -9.47663,13.60507 -10.7681,14.57632 -6.779,5.09814 22.624,-53.75509 48.14003,-84.26919 99.68545,-119.21183 27.37044,-18.55441 63.28486,-29.02385 122.25508,-35.63865 5.5,-0.61694 10.9,-1.31573 12,-1.55286 l 2,-0.43115 1.56289,-3.20665 1.5629,-3.206647 4.64744,-3.20271 c 4.81501,-3.318191 13.50674,-6.902111 24.72677,-10.195759 l 6.5,-1.90808 -10,-0.791534 -10,-0.791534 -12.59721,0.635716 c -6.92847,0.349644 -16.55287,1.325525 -21.38756,2.168624 -4.83469,0.8431 -8.96051,1.362751 -9.16848,1.154782 -0.71873,-0.718736 29.19663,-7.665601 41.65325,-9.672605 l 12.5,-2.013993 18.65647,-1.181305 18.65647,-1.181305 18.34353,1.196497 c 83.47521,5.444851 151.64422,35.297053 219.42889,96.091113 l 12.27508,11.00914 13.31978,14.65018 c 7.32588,8.05759 15.25941,17.18637 17.63008,20.28618 l 4.3103,5.63601 7.33606,15 7.33607,15 7.75219,20.5 c 4.26371,11.275 9.30243,23.875 11.19716,28 8.85567,19.27958 14.57539,37.89944 18.27743,59.5 l 2.05664,12 0.89359,14.73189 0.8936,14.73189 -0.8755,14.74094 c -0.48152,8.10753 -0.73571,14.88075 -0.56485,15.0516 1.17327,1.17327 6.44645,-36.88957 6.6161,-47.75632 0.0558,-3.575 0.46049,-7.4 0.89929,-8.5 l 0.7978,-2 0.74778,14.64941 0.74777,14.64941 -0.6987,11.35059 c -2.40921,39.13847 -12.1907,76.68621 -28.18014,108.17368 l -2.95698,5.82309 0.41171,-6.46591 0.41172,-6.46591 -0.99877,-1.78471 -0.99878,-1.78472 -2.25381,4.42754 c -16.7363,32.87797 -41.67416,66.63209 -68.70146,92.98941 l -15.83054,15.43812 -10.70304,8.32591 c -63.90617,49.71269 -141.32883,77.40039 -223.23294,79.83199 l -20,0.59377 -14.5,-1.15088 c -7.975,-0.63299 -23.275,-2.52949 -34,-4.21446 l -19.5,-3.06359 -13.93499,-3.50188 C 443.21839,680.69913 376.54402,635.13854 336.86128,575.51793 l -8.83054,-13.26728 -5.9487,-11.73272 c -3.27178,-6.45299 -7.44961,-15.71951 -9.28405,-20.59226 -4.98845,-13.25054 -4.63061,-8.85076 0.56775,6.98093 l 4.55708,13.87862 8.37024,17 8.37024,17 10.25329,15.5 10.2533,15.5 16.60985,16.5516 16.60985,16.55161 11.5,8.57409 c 47.92211,35.72945 102.03147,57.277 164.2054,65.39025 l 12.2946,1.60436 22.74866,0.54984 22.74865,0.54985 15.75135,-1.20169 c 124.94216,-9.53197 232.81874,-74.7519 294.53535,-178.06991 l 6.86948,-11.5 -0.65084,2.5 c -0.35796,1.375 -2.88451,7.06918 -5.61455,12.65372 l -4.96371,10.15373 -11.05887,15.84627 c -6.08237,8.71546 -14.45591,20.12128 -18.60786,25.34628 l -7.54899,9.5 -17.10433,17.05957 -17.10434,17.05957 -11,8.74294 c -71.97084,57.20337 -165.10819,87.07887 -255.5,81.95626 z m 75.5,-45.25065 c 151.55099,-20.22215 265.80878,-127.44378 285.659,-268.06769 l 1.341,-9.5 -0.0299,-26 -0.0299,-26 -1.77833,-12 c -2.14824,-14.49621 -6.58984,-33.61226 -10.80423,-46.5 -3.99456,-12.2155 -5.04152,-13.29136 -2.72469,-2.79991 1.00808,4.56495 2.83013,14.59991 4.049,22.29991 l 2.21612,14 v 28.5 28.5 l -2.24928,14.5 c -8.21202,52.93863 -26.55779,97.36957 -56.93458,137.88772 l -8.53746,11.38771 -12.54591,12.94917 -12.54591,12.94917 -10.04251,7.27802 c -5.52329,4.00291 -14.76742,10.11426 -20.54242,13.58079 -5.775,3.46652 -15,9.75659 -20.5,13.97792 -24.92165,19.12772 -55.8567,36.87806 -81.97997,47.03958 -4.67378,1.81803 -8.37588,3.4274 -8.22689,3.5764 1.21874,1.21874 32.42184,-7.76246 42.61058,-12.26461 9.77381,-4.31881 6.33826,-1.78949 -4.64677,3.42105 -27.70298,13.14038 -55.39579,20.96243 -87.25695,24.64641 -7.425,0.85853 -19.8,2.47558 -27.5,3.59344 l -14,2.03249 -16.76377,0.62527 c -31.33569,1.16878 -11.79973,3.35543 24.76377,2.77178 l 24,-0.3831 z m -42.69788,-75.06383 c 43.78128,-3.9471 82.61166,-18.2806 116.69788,-43.07682 18.53766,-13.48534 20.37437,-14.9877 22.47147,-18.38088 l 2.02853,-3.28223 v -3.07526 -3.07526 l -1.94429,-1.36183 -1.94428,-1.36183 5.57439,-4.44488 c 3.06591,-2.44468 9.90334,-8.9809 15.19428,-14.52493 l 9.6199,-10.08005 6.71213,-9.41995 c 13.24657,-18.5905 22.56414,-38.19354 27.76772,-58.41994 l 2.82994,-11 1.21125,-11.5 1.21125,-11.5 -0.66197,-8.88112 c -0.88726,-11.90356 -2.97817,-22.49188 -6.49758,-32.90368 -1.60261,-4.74115 -4.79307,-17.07913 -7.08991,-27.41774 -9.10798,-40.99715 -11.66646,-46.01681 -38.95827,-76.43481 -20.51816,-22.86845 -35.43817,-37.67084 -48.59117,-48.2081 l -10.17881,-8.15455 -10.41657,-6.20489 c -5.72911,-3.41269 -13.63673,-7.57519 -17.57248,-9.25 l -7.1559,-3.04511 h -13.83303 -13.83302 l -7.09515,-3.40026 c -9.62093,-4.61071 -20.63617,-8.20948 -32.74437,-10.69786 l -10.10406,-2.0765 -13.5,-0.54595 -13.5,-0.54594 -13.5,1.71617 -13.5,1.71616 -13.00644,3.32569 c -32.51942,8.31509 -68.64885,25.44911 -108.24356,51.33345 l -19.25,12.58435 v 2.65784 2.65784 l -3.04719,3.88751 -3.04719,3.8875 -7.15392,5 -7.15392,5 -4.85922,8 c -2.67258,4.4 -7.50951,13.4 -10.74874,20 l -5.88952,12 -3.51731,10.52851 c -4.51188,13.5056 -6.37577,22.49059 -7.53732,36.334 l -0.9345,11.13749 -1.53866,5.40268 c -0.84626,2.97148 -2.05631,9.27148 -2.689,14 l -1.15034,8.59732 0.58695,11.06718 0.58694,11.06718 1.63256,7.9037 c 4.39186,21.26236 26.78735,70.88542 44.21141,97.96194 24.79984,38.53826 61.88673,65.88527 108.24897,79.82025 l 11.5,3.45652 13,2.22302 c 7.15,1.22266 17.725,3.27801 23.5,4.56745 9.19747,2.0536 18.97439,3.55534 31,4.76161 7.35812,0.73808 26.92737,0.56527 36.80212,-0.32499 z m -252.86543,-76.34102 -1.16678,-4.6337 -4.40289,-6.56496 c -2.42158,-3.61072 -7.57866,-10.47978 -11.46016,-15.26457 -8.46642,-10.43668 -13.40121,-18.94821 -17.21917,-29.69961 -7.47814,-21.05852 -8.66632,-24.79289 -10.06882,-31.64583 -0.8278,-4.04479 -2.0348,-11.38077 -2.68223,-16.30218 l -1.17713,-8.94801 0.50927,-20.55199 0.50927,-20.55199 2.12953,-11.28523 2.12954,-11.28523 4.88385,-14.78846 4.88384,-14.78846 5.2023,-10.36678 c 2.86126,-5.70172 8.06686,-14.78106 11.56799,-20.17631 3.50114,-5.39524 6.01193,-9.80953 5.57953,-9.80953 -1.93524,0 -37.02527,38.44238 -37.21387,40.76913 -0.0326,0.40198 -0.64387,5.45587 -1.3584,11.23087 l -1.29916,10.5 -5.18773,19.95666 -5.18774,19.95667 0.6764,5.54333 c 0.37201,3.04884 1.93239,9.81834 3.46749,15.04334 1.5351,5.225 3.5281,12.36767 4.42888,15.87259 l 1.63779,6.37259 -2.12793,2.26509 -2.12794,2.26508 1.16854,4.36232 c 5.67074,21.16962 17.96363,50.42111 27.14627,64.59574 7.59385,11.72213 7.4714,10.99452 -0.97652,-5.80275 l -7.7606,-15.43066 -4.23126,-12.5 c -5.25549,-15.5258 -5.4171,-17.8355 -0.30959,-4.42475 5.92633,15.56072 11.48002,27.49503 20.87746,44.86352 l 8.62388,15.93876 4.91044,5.9005 4.91044,5.90049 0.94099,-0.94099 0.941,-0.94099 z M 934.78953,423.47219 c 0.66265,-1.23818 1.87502,-5.94927 2.69416,-10.4691 l 1.48934,-8.21787 0.59671,-14.5 0.59672,-14.5 -1.20696,-10.5 c -3.96804,-34.52024 -16.34182,-66.61785 -40.8635,-106 -9.24644,-14.84991 -29.66763,-44.22063 -32.36301,-46.54601 l -2.2649,-1.95399 1.93429,3 c 16.7717,26.01218 33.31208,60.11292 39.77365,82 0.81187,2.75 3.74309,10.85402 6.51382,18.00894 8.48641,21.9146 13.32039,40.48463 16.2671,62.49106 l 1.13817,8.5 0.0906,15.5 c 0.0498,8.525 -0.26435,19.55 -0.69818,24.5 l -0.78878,9 2.94297,-4.0309 c 1.61863,-2.217 3.48514,-5.04396 4.14779,-6.28213 z m -611.85917,-117.91742 1.10143,-3.23045 -0.58509,-0.94671 -0.5851,-0.9467 8.3576,-12.82285 c 4.59668,-7.05256 9.59574,-14.96034 11.10902,-17.57284 4.25425,-7.34446 3.81767,-5.75484 -1.9225,7 -5.19706,11.54803 -10.8462,26.25 -10.0864,26.25 0.2127,0 2.05466,-3.0375 4.09323,-6.75 2.03858,-3.7125 6.44628,-11.025 9.7949,-16.25 l 6.0884,-9.5 11.12933,-12.5 11.12932,-12.5 7.26632,-11.25 7.26631,-11.25 h 3.70123 3.70123 l 1.38641,-1.25 c 0.76253,-0.6875 -0.60997,1.20432 -3.05,4.20404 -5.08256,6.2484 -4.93792,6.19232 6.73464,-2.61135 4.76667,-3.5951 15.23027,-10.92629 23.25246,-16.29153 23.93788,-16.00966 23.12605,-18.56119 -1.93699,-6.08786 l -10.48652,5.2189 -6.90017,7.1589 -6.90018,7.1589 3.27073,-4.29611 c 1.7989,-2.36287 3.07027,-4.49657 2.82528,-4.74156 -2.4351,-2.4351 -53.5017,40.56605 -52.61087,44.30152 0.0966,0.40488 -0.63676,2.36681 -1.6296,4.35985 l -1.80515,3.62369 -1.83047,-0.47867 -1.83046,-0.47868 -3.04456,4.80076 c -1.6745,2.64042 -3.04455,5.22849 -3.04455,5.75128 0,0.52278 -1.98714,3.07492 -4.41586,5.67143 l -4.41587,4.72092 -2.70971,5.34736 c -2.91465,5.75177 -6.76248,15.66396 -7.85837,20.24352 l -0.6761,2.82532 2.50762,-1.82532 2.50763,-1.82531 z m 609.45102,-28.44059 c -8.6004,-21.07932 -20.69682,-42.0613 -35.87563,-62.22849 l -8.95616,-11.89953 -11.08,-11.11346 c -17.20119,-17.25313 -39.28165,-34.17804 -61.95244,-47.48721 -8.99383,-5.27993 -34.0047,-18.10027 -35.31136,-18.10027 -0.3918,0 3.59136,2.9264 8.85146,6.50311 5.26011,3.57671 13.14312,9.799 17.51781,13.82731 4.37469,4.02832 11.31347,9.80868 15.41952,12.84524 32.13553,23.76535 60.58089,55.16954 83.58981,92.28466 l 6.79468,10.96032 10.50526,11.36795 c 5.77789,6.25236 11.40526,12.38089 12.50526,13.61894 3.30333,3.71791 2.8496,1.32778 -2.00821,-10.57857 z m -392.49179,-151.96737 3.5,-1.85901 -2.5,0.4623 c -21.31326,3.94123 -24.21628,4.85221 -12.41812,3.89688 l 7.91812,-0.64116 z m 430.19495,224.63841 0.0371,-3 0.46099,1.76903 c 0.25354,0.97297 0.23687,2.32297 -0.0371,3 l -0.49805,1.23097 0.0371,-3 z m -3.03219,-14.05888 c -11.54007,-54.02148 -39.16211,-103.66303 -99.01176,-177.94112 -5.76112,-7.15 -10.96442,-13.675 -11.56288,-14.5 -6.77319,-9.33701 46.20909,42.87201 59.87383,59 29.34967,34.64031 57.20691,108.45467 53.37932,141.44112 l -0.34127,2.94113 z"
         id="path2213" />
      <path
         style="fill:#fbae32;fill-opacity:1"
         d="m 586.38959,735.28775 c -50.76594,-3.60012 -97.08935,-16.28909 -139.97847,-38.34308 l -11.97848,-6.15945 -16.02152,-10.58041 C 354.23901,637.82639 318.05253,598.15424 307.20363,558.28522 l -1.76874,-6.5 0.0405,-16 0.0405,-16 1.14864,-2.11282 1.14864,-2.11282 -2.02676,-7.38718 c -1.11472,-4.06295 -3.42065,-10.63104 -5.12428,-14.59576 l -3.09752,-7.20858 -0.73175,0.45225 -0.73175,0.45225 -1.0917,-5.74367 c -0.60043,-3.15902 -2.19333,-9.84162 -3.53976,-14.85023 l -2.44808,-9.10656 -1.14968,-10.39344 -1.14968,-10.39344 0.63811,-6.5 c 1.01285,-10.31725 2.51639,-17.89861 5.14915,-25.96385 l 2.44704,-7.49633 -1.18205,-4.61212 -1.18205,-4.61213 2.23397,-13.40778 c 5.83521,-35.0215 26.52902,-91.58011 36.55072,-99.89739 0.84698,-0.70293 3.88072,-5.15533 6.74165,-9.89423 2.86093,-4.73889 9.25108,-14.01617 14.20034,-20.61617 l 8.99864,-12 14.03691,-14 14.03691,-14 10.49904,-8.11416 c 44.41847,-34.32874 94.27173,-56.04395 153.32939,-66.78762 21.62016,-3.9331 20.80202,-3.60951 15.90846,-6.29202 l -3.73881,-2.0495 -8.5,0.90078 c -4.675,0.49543 -9.13157,1.12506 -9.9035,1.39917 l -1.40349,0.49839 1.90192,1.39072 c 2.67941,1.95923 -28.32174,9.55424 -38.99831,9.55424 h -2.35268 l -1.41202,2.12662 -1.41202,2.12662 -5.45995,0.41755 -5.45995,0.41754 3,-1.74332 c 1.65,-0.95882 6.825,-3.21377 11.5,-5.01099 10.58134,-4.0678 9.37564,-4.18634 -4.07657,-0.40079 -36.98303,10.4073 -81.05133,32.68103 -106.66516,53.91248 -3.16705,2.62518 -8.45827,6.6136 -11.75827,8.86316 -17.3961,11.85862 -41.68027,39.14486 -61.01356,68.55621 -5.55673,8.45334 -5.30182,6.47112 0.95311,-7.4116 9.36563,-20.78687 23.92292,-46.05524 34.7608,-60.33734 l 5.29965,-6.98387 14.5,-12.32044 c 58.0792,-49.34907 84.9601,-60.5571 166.29799,-69.33816 l 11.798,-1.27369 1.63128,-3.43767 1.63128,-3.437667 5.80171,-3.749825 5.80171,-3.749826 11.09963,-3.612496 c 6.10481,-1.986873 11.85086,-3.672622 12.76902,-3.746109 0.91816,-0.07349 -0.58062,-0.484064 -3.33062,-0.912394 -10.77802,-1.678744 -34.19086,-0.976413 -52.5,1.574877 l -3.5,0.487708 6.71865,-1.996157 c 9.72183,-2.888422 29.29941,-6.699237 44.28135,-8.619454 l 13,-1.666195 23.5,-0.0082 23.5,-0.0082 14,1.705024 C 751.5172,85.685019 828.22695,127.64745 894.1966,202.06068 l 10.80697,12.19017 5.30955,8.45713 c 6.25277,9.95951 12.19498,23.18872 21.8196,48.57717 3.85728,10.175 9.03166,23 11.49862,28.5 11.27,25.12608 17.39322,47.53635 20.30058,74.29777 l 1.22739,11.29777 -0.47309,22.95714 c -0.2602,12.62644 -0.36157,22.84244 -0.22526,22.70224 0.83944,-0.86344 4.52236,-24.76544 5.46655,-35.47771 0.61941,-7.02747 1.45216,-14.80221 1.85056,-17.27721 l 0.72437,-4.5 0.74906,13.5 0.74906,13.5 -1.12299,16 c -2.45072,34.917 -9.68258,63.56245 -24.36251,96.5 l -5.12543,11.5 -0.26131,-5 c -0.58217,-11.13916 -1.66866,-11.86303 -5.62863,-3.75 -50.12145,102.6868 -158.18979,176.33338 -282.11006,192.25287 l -16,2.05545 -18.5,0.59806 -18.5,0.59805 -14.5,-1.15426 C 455.7016,699.8626 351.88586,630.82387 311.80424,526.78522 c -4.63495,-12.03081 -4.89779,-11.34109 -0.98189,2.57657 6.44129,22.89329 17.85474,46.87847 33.51126,70.42343 l 9.30949,14 8.24804,9.32705 c 22.24709,25.15742 54.93887,49.25164 90.49845,66.69839 l 17,8.34078 13.67471,5.06824 c 25.12563,9.31227 50.67314,15.64059 79.82529,19.77336 l 12.5,1.77206 33,-0.007 33,-0.007 14.5,-1.79423 c 71.94387,-8.90234 137.94102,-36.57984 194.11164,-81.40539 l 13.38836,-10.68511 15.53603,-15.54057 15.53603,-15.54058 8.80481,-11 c 10.16471,-12.69893 23.29591,-32.02777 30.5711,-45 5.81769,-10.37337 6.24354,-10.50943 2.05011,-0.65501 -11.67068,27.42569 -47.99611,73.72871 -78.50425,100.06717 -67.83714,58.56556 -150.18814,90.29652 -240.0122,92.47996 l -18.98163,0.4614 z m 62,-43.03324 c 72.39018,-6.09332 136.49683,-31.37307 192.18425,-75.78575 l 10.81575,-8.62594 14.02254,-14.0288 14.02254,-14.0288 8.22796,-10.28409 c 36.4347,-45.53952 57.27186,-94.98459 63.79005,-151.36914 l 1.65852,-14.34677 -0.52777,-23 -0.52777,-23 -1.56598,-10.30355 c -2.28474,-15.03273 -6.27557,-32.09329 -10.57242,-45.19645 l -3.77114,-11.5 0.77639,-0.50009 0.77639,-0.50009 -4.22965,-10.49991 C 907.38764,214.53892 862.02341,167.18925 792.88959,132.55276 c -16.33555,-8.18422 -19.57035,-9.19617 -10.00923,-3.13122 8.60123,5.45606 16.97011,11.93864 25.48216,19.73863 3.8351,3.51429 11.27713,9.64922 16.53782,13.63319 31.21388,23.63853 57.13797,52.9903 81.24911,91.99186 l 5.56389,9 11.83813,12.52705 11.83812,12.52704 0.0882,2.47296 c 0.0485,1.36012 1.04333,6.97295 2.21068,12.47295 1.16735,5.5 2.82571,15.175 3.68524,21.5 l 1.56277,11.5 0.6088,18.5 0.6088,18.5 -1.14081,13.5 c -6.03091,71.36796 -33.50676,133.61958 -80.7995,183.06622 l -9.82418,10.27165 -10.18069,7.58107 c -5.59938,4.16958 -14.36792,10.05606 -19.48565,13.08106 -5.11774,3.025 -14.71143,9.58321 -21.31931,14.57379 -28.28724,21.36383 -57.88813,38.35335 -85.27058,48.94131 -3.99093,1.54317 -7.06738,2.99462 -6.83655,3.22545 0.81057,0.81057 25.707,-5.74419 34.82256,-9.16813 13.47439,-5.06119 11.78523,-3.71231 -3.97996,3.17819 -24.61823,10.7599 -49.66148,17.7176 -74.74982,20.76753 -7.15,0.8692 -19.075,2.4517 -26.5,3.51666 -19.8256,2.84356 -32.77335,3.9652 -45.77262,3.9652 h -11.56071 l 0.63438,0.63439 c 1.11296,1.11295 16.62715,2.07408 35.69895,2.21159 l 18.5,0.13339 z m -11,-78.44585 c 14.20798,-2.24377 30.16292,-6.17082 43.5,-10.70681 l 11.5,-3.9112 15,-7.42011 15,-7.42012 9.69411,-6.7826 c 26.50258,-18.54285 30.84571,-22.32082 32.29413,-28.09176 l 0.63553,-2.53216 -1.99608,-2.69984 -1.99607,-2.69983 7.93961,-6.87951 c 9.45397,-8.19167 20.86061,-20.94292 29.5811,-33.06811 l 6.33718,-8.81139 6.886,-13.53606 6.886,-13.53607 3.61256,-11.17479 c 1.98692,-6.14613 4.38941,-15.3549 5.33888,-20.46393 l 1.7263,-9.28915 -0.003,-15.5 -0.003,-15.5 -1.78719,-8.5 c -0.98295,-4.675 -2.92381,-11.875 -4.31302,-16 -1.38921,-4.125 -4.51713,-16.275 -6.95093,-27 -5.39596,-23.7783 -8.20408,-32.80379 -13.84535,-44.5 l -4.34085,-9 -4.33275,-5 c -46.12296,-53.22604 -69.90785,-74.499 -98.86316,-88.42228 l -10.5,-5.04897 -13.80611,-0.0144 -13.80611,-0.0144 -10.19389,-4.43517 c -12.90473,-5.61461 -24.73976,-9.04411 -38.01124,-11.01474 l -10.43933,-1.55009 h -11.57044 -11.57045 l -11.80121,1.54035 c -41.06625,5.36014 -84.2433,23.7986 -136.80122,58.42 l -16,10.53965 0.32644,2.30257 0.32644,2.30256 -3.23604,4.21537 -3.23604,4.21536 -7.16802,4.92164 -7.16803,4.92163 -5.06183,8.56043 c -11.42848,19.32757 -19.79457,38.78641 -23.8159,55.39383 l -2.46174,10.16661 -0.59222,9.5 -0.59221,9.5 -2.65393,10.5 -2.65392,10.5 -1.8e-4,17 -1.9e-4,17 1.81419,8.5 c 4.09769,19.19885 22.77383,61.62078 39.61471,89.98286 30.58101,51.50215 81.08026,85.041 141.55847,94.01544 4.4,0.65292 13.175,2.31628 19.5,3.69635 6.325,1.38007 16.225,3.12053 22,3.86767 l 10.5,1.35845 20,-0.40905 20,-0.40904 z M 370.88402,543.4762 c -0.0205,-6.21307 -6.83501,-18.07515 -18.02119,-31.36964 -3.38816,-4.02674 -7.91671,-10.26999 -10.06344,-13.8739 l -3.90314,-6.55257 -2.92892,-8.44743 c -1.61091,-4.64609 -3.83695,-10.74779 -4.94678,-13.55933 -3.06845,-7.77339 -6.13445,-20.67616 -7.69093,-32.36607 l -1.40098,-10.52204 -0.0195,-14.78941 -0.0195,-14.78942 1.06686,-9.71058 c 1.55968,-14.19622 4.4349,-26.48177 10.05929,-42.98236 l 4.98599,-14.62767 4.55041,-8.81042 c 2.50272,-4.84573 7.60425,-13.41836 11.33673,-19.05028 10.82469,-16.33333 1.52886,-8.7788 -20.62332,16.76014 l -10.40865,12 -0.98645,3.5 c -0.54254,1.925 -1.25548,6.65 -1.5843,10.5 l -0.59786,7 -5.05123,19 -5.05122,19 -0.034,7 -0.034,7 4.79605,16.81828 4.79605,16.81829 -2.32234,2.47202 -2.32234,2.47201 4.11881,12.2097 c 2.26534,6.71534 5.97357,17.57066 8.2405,24.12295 l 4.12169,11.91324 5.12201,9.08676 c 5.3688,9.52459 15.82134,25.59861 15.82134,24.33023 0,-0.4063 -2.31731,-4.90229 -5.14956,-9.9911 -6.92697,-12.44589 -12.2897,-24.23481 -16.42137,-36.09916 -4.19329,-12.04127 -4.44576,-15.16089 -0.34423,-4.25329 4.80217,12.77084 13.90587,32.0715 22.26776,47.20963 l 7.79374,14.10955 4.65075,5.56107 4.65076,5.56106 0.77607,-0.47964 c 0.42684,-0.2638 0.77357,-1.24058 0.7705,-2.17062 z m 561.05666,-115.14873 4.09359,-6.33359 1.49696,-8.10433 1.49696,-8.10433 0.56598,-15.54427 0.56597,-15.54426 -1.17229,-9.95574 c -1.73322,-14.71947 -4.54752,-27.11039 -9.57407,-42.1531 l -4.48458,-13.42079 -5.98431,-12.51022 c -12.13279,-25.36362 -43.3039,-74.63082 -53.06516,-83.87162 l -3.16896,-3 6.97842,11.01992 c 8.02651,12.675 18.43177,32.15284 23.76171,44.48008 3.29746,7.62646 7.32648,18.55635 22.11748,60 2.45364,6.875 5.75157,17.77358 7.32872,24.21907 l 2.86754,11.71908 1.68824,13.26386 1.68823,13.26386 -0.54379,21.51706 c -0.29909,11.83439 -0.87212,22.64207 -1.27341,24.01707 -0.9747,3.33975 -0.22768,2.53756 4.61677,-4.95775 z m -609.03051,-122.60461 1.12162,-3.39854 -0.60205,-0.97415 -0.60206,-0.97414 3.40246,-4.79541 c 1.87136,-2.63747 6.45751,-9.7454 10.19145,-15.7954 7.89754,-12.79616 9.77226,-15.17857 5.98645,-7.60763 -2.76306,5.52563 -10.76225,25.62459 -11.98255,30.10763 l -0.6805,2.5 4.59505,-7.90498 c 2.52728,-4.34774 7.16408,-11.99774 10.304,-17 l 5.70895,-9.09502 10.68117,-11.80041 10.68116,-11.80041 7.77528,-11.86386 7.77526,-11.86386 4.17445,-0.33573 4.17445,-0.33573 -3.36258,4.10299 c -5.01318,6.11703 -4.14236,6.04068 3.88895,-0.34095 3.98835,-3.16912 15.46335,-11.31171 25.5,-18.09465 l 18.24846,-12.3326 v -1.4174 c 0,-2.32953 -6.66886,-0.0736 -21.46228,7.26021 l -7.03772,3.48894 -7.42718,7.66673 -7.42718,7.66673 3.81845,-4.7754 c 2.10015,-2.62646 3.60868,-4.98516 3.35229,-5.24155 -2.31956,-2.31956 -54.81638,41.51211 -54.81638,45.76835 v 0.86663 l 1.19667,-0.73958 1.19667,-0.73958 -2.19667,3.08494 c -1.20817,1.69671 -2.19667,3.53584 -2.19667,4.08694 v 1.00201 l -1.86371,-0.48737 -1.86371,-0.48737 -2.10675,2.67829 c -1.1587,1.47306 -2.66043,4.2095 -3.33717,6.08099 -0.67674,1.87148 -1.57546,3.4027 -1.99715,3.4027 -3.60364,0 -18.83151,29.27124 -18.83151,36.19821 v 0.8479 l 2.44948,-1.60496 2.44948,-1.60497 z M 539.14979,125.56994 c 5.78554,-2.45821 3.99894,-2.50809 -7.86228,-0.21948 -13.27064,2.56056 -14.51457,3.35077 -3.89792,2.47618 l 8,-0.65903 z m 429.8558,218.90679 c -1.99303,-39.66251 -39.01469,-109.5514 -95.45134,-180.19151 -7.68972,-9.625 -14.47256,-18.175 -15.07298,-19 -2.5572,-3.51368 17.15925,14.69013 31.91744,29.46873 l 16.00912,16.03127 10.80897,12.97384 10.80896,12.97385 4.9999,8.27758 c 19.88291,32.91717 41.07941,102.41838 36.57335,119.92039 l -0.47742,1.85434 z"
         id="path2211" />
      <path
         style="fill:#fbae32;fill-opacity:1"
         d="m 559.38959,690.15207 c -6.05,-0.44591 -17.3,-1.75687 -25,-2.91324 l -14,-2.1025 -17,-4.32296 -17,-4.32296 -12.94895,-4.77641 -12.94894,-4.77641 -16.55106,-8.24394 -16.55105,-8.24395 -12,-7.92173 c -6.6,-4.35695 -16.275,-11.22721 -21.5,-15.26725 l -9.5,-7.34553 -14.51543,-14.56499 -14.51543,-14.56498 -8.48457,-10.77211 C 331.0431,559.9138 318.8274,538.49765 309.46984,514.43705 l -5.58025,-14.34817 v -4.00088 -4.00087 l -3.90365,-11.65096 -3.90366,-11.65095 -1.59926,-10.5 c -0.87959,-5.775 -2.14102,-18.98044 -2.80318,-29.34543 l -1.20391,-18.84542 2.29828,-6.40834 2.29828,-6.40834 -1.1914,-4.74623 -1.19141,-4.74624 2.11674,-12.87495 c 4.91421,-29.89057 13.82681,-57.2802 27.63932,-84.93947 l 6.39929,-12.81443 4.64375,-5.43557 c 2.55407,-2.98957 5.01613,-5.43558 5.47126,-5.43558 h 0.8275 l -1.54926,3.70789 c -0.85209,2.03934 -3.46322,5.97684 -5.80251,8.75 -6.43045,7.62309 -15.54618,26.77199 -15.54618,32.65697 v 0.95551 l 1.98965,-1.06483 c 2.51135,-1.34403 5.0486,-6.16919 4.83459,-9.19406 l -0.16354,-2.31148 7.50842,-11.5 c 4.12964,-6.325 8.74874,-13.6375 10.26468,-16.25 3.6764,-6.33576 4.25925,-6.05118 0.95628,0.46691 -1.45398,2.8693 -4.59851,10.08116 -6.98784,16.02635 l -4.34424,10.80944 -5.10689,19.22365 -5.10689,19.22365 -0.5349,7 -0.5349,7 -5.0921,19 -5.09211,19 0.0387,7.5 0.0387,7.5 3.11818,10.5 c 1.715,5.775 3.81252,13.1734 4.66115,16.44088 l 1.54297,5.94088 -2.13514,2.27275 -2.13514,2.27275 1.30811,4.78637 c 0.71947,2.6325 3.77296,11.53637 6.78554,19.78637 l 5.47743,15 0.65929,9.12913 0.65929,9.12913 3.40586,5.61964 c 10.56508,17.43231 24.65593,28.62556 16.36029,12.99602 -8.82935,-16.63509 -14.13494,-27.86354 -17.75716,-37.58025 -5.3511,-14.35445 -4.36704,-14.21373 1.44287,0.20633 13.95284,34.63056 38.63017,74.91572 56.16264,91.68418 l 6.46594,6.18419 12.4051,8.11876 12.40509,8.11876 17,8.34804 c 9.35,4.59142 25.58024,11.75738 36.06721,15.92437 l 19.0672,7.57633 12.81388,3.51189 c 14.62421,4.00805 28.60262,6.81471 43.05171,8.64413 l 10,1.26611 20,-0.0173 20,-0.0173 10,-1.2438 c 35.45961,-4.41047 67.52984,-14.31393 99.80596,-30.82062 l 14.8649,-7.60222 13.16457,-8.65826 C 799.9949,550.3615 841.37368,491.84434 855.38734,423.78522 l 1.64723,-8 0.77406,-12.56404 0.77406,-12.56403 -0.82328,-11.43597 C 854.51712,334.18337 837.9252,293.22121 792.8188,218.89572 l -8.42921,-13.8895 -7.83703,-8.33744 -7.83703,-8.33744 -7.57788,-5.70328 c -14.57573,-10.97001 -38.45742,-23.02408 -50.70548,-25.59314 l -5.47683,-1.14878 -0.78288,0.79709 -0.78287,0.79708 3.5,2.99669 3.5,2.99669 -6.30233,-3.13505 c -24.78755,-12.33037 -46.56895,-18.581 -80.19767,-23.01442 -29.97437,-3.95164 -41.0819,-6.88928 -53.14364,-14.05503 l -6.71529,-3.98948 -3.03044,-3.67644 c -1.66674,-2.02205 -3.30728,-4.9369 -3.64564,-6.47746 l -0.61521,-2.80101 2.1409,-3.80921 2.1409,-3.809219 4.68421,-3.15742 c 5.8516,-3.944307 12.43433,-6.518474 26.59065,-10.398242 l 11.09356,-3.040368 16.5,0.03453 16.5,0.03453 12,1.570696 c 38.60854,5.053522 76.83626,16.169741 110,31.986843 l 13,6.20021 13.5,9.11308 13.5,9.11308 13,11.88883 c 45.21249,41.34799 74.11189,85.88711 93.58624,144.23308 l 5.84103,17.5 2.98236,15 c 1.6403,8.25 3.56003,19.725 4.26607,25.5 l 1.28371,10.5 0.0203,22 0.0203,22 -1.3252,10.5 c -4.18391,33.15055 -13.03797,62.13833 -27.91886,91.40498 l -6.56165,12.90497 -8.67754,13.09503 c -37.24807,56.20998 -95.60311,103.33627 -158.01676,127.61096 -4.675,1.81826 -8.95,3.63113 -9.5,4.02861 -1.80447,1.30406 -29.16017,9.90351 -39.69238,12.47756 -29.54747,7.22135 -79.10465,11.49713 -108.30762,9.34474 z M 355.34216,585.12815 c -2.24778,-4.43336 -12.66278,-18.96605 -13.20421,-18.42462 -0.23386,0.23386 0.94875,3.30407 2.62803,6.82268 l 3.05323,6.39747 4.15842,4.72421 c 4.66167,5.29594 5.89543,5.47205 3.36453,0.48026 z M 294.88959,434.28522 v -2 h -0.90638 -0.90638 l 0.52301,2 c 0.28766,1.1 0.69553,2 0.90638,2 0.21086,0 0.38337,-0.9 0.38337,-2 z m 44,-126.3287 c 0,-6.33077 6.66768,-28.95487 10.30304,-34.95923 l 2.29341,-3.78794 5.34152,-4.21206 5.34151,-4.21207 12.61693,-18.5 12.61693,-18.5 3.80902,-0.31428 3.80902,-0.31428 -3.65455,4.81428 c -2.01,2.64785 -7.63383,9.98928 -12.49739,16.31428 -11.4374,14.87418 -18.50117,26.27447 -28.97944,46.77022 l -8.5,16.62621 -1.25,0.38512 c -0.6875,0.21181 -1.25,0.1622 -1.25,-0.11025 z m 3.69022,-45.83991 c 1.20461,-1.28227 3.65127,-3.19404 5.43701,-4.2484 l 3.2468,-1.91701 -2.36318,3.41701 c -1.29974,1.87936 -2.3964,3.46621 -2.43701,3.52633 -0.0406,0.0601 -1.42384,0.43426 -3.07384,0.83139 l -3,0.72207 z m 61.8103,-51.83139 c 12.13542,-17.57202 15.86357,-20.9322 31.138,-28.06468 11.4118,-5.32881 14.7267,-6.21129 5.82526,-1.55079 -6.2258,3.25962 -16.67328,11.92001 -30.8627,25.58347 l -9.89892,9.532 z m 94.99948,-74.52333 c 3.85,-1.8433 10.375,-4.26748 14.5,-5.38708 l 7.5,-2.03562 7,-0.40416 7,-0.40415 3.85305,-1.67931 3.85306,-1.67931 2.56982,0.30648 c 1.41341,0.16857 2.72495,0.78021 2.91453,1.35922 l 0.3447,1.05274 -9.26758,1.81782 c -5.09717,0.99981 -15.26532,2.84882 -22.59589,4.10891 -11.98424,2.06004 -17.00965,3.40514 -13.08836,3.50323 l 1.41667,0.0354 -2.5,1.42912 -2.5,1.42913 -4,-0.0505 -4,-0.0505 z"
         id="path2209" />
      <path
         style="fill:#f16023;fill-opacity:1"
         d="M 547.88959,688.70573 C 472.19377,680.48861 400.38365,643.67404 355.91154,590.28522 l -5.41441,-6.5 3.69623,3.44617 c 2.03293,1.89539 3.69623,2.99392 3.69623,2.44117 0,-2.6716 -14.63103,-24.08964 -15.71534,-23.00533 -0.70798,0.70798 2.32625,8.20771 4.87936,12.06032 l 2.02631,3.05767 -3.10294,-3.5 c -5.83017,-6.57624 -18.20508,-25.96763 -25.04246,-39.24135 l -6.8296,-13.25865 -5.10767,-13.67859 -5.10766,-13.67858 v -3.8683 -3.86831 l -3.87256,-11.45311 -3.87256,-11.45311 -1.59778,-12 c -0.87878,-6.6 -2.13523,-19.12151 -2.79211,-27.82558 l -1.19432,-15.82559 2.30607,-7.98075 2.30608,-7.98076 -1.14726,-3.82921 -1.14726,-3.82922 1.07811,-7.86445 c 4.16872,-30.40919 14.30248,-62.34027 28.99574,-91.36444 l 6.83428,-13.5 4.55178,-4.45821 c 7.03427,-6.88964 4.89484,-0.99723 -3.27805,9.02842 -6.3162,7.74805 -14.17016,25.25542 -14.17016,31.58688 v 1.80445 l 3.13337,-3.13337 3.13337,-3.13337 0.27772,-3.89893 0.27771,-3.89894 5.89599,-8.94846 c 3.24279,-4.92166 7.32751,-11.19847 9.07715,-13.94847 4.00651,-6.29724 4.02402,-5.58054 0.076,3.11168 -5.23399,11.52358 -9.82702,25.10996 -13.9918,41.38832 l -3.96564,15.5 -0.9005,9 -0.9005,9 -5.05113,19 -5.05113,19 -0.005,4.14052 -0.005,4.14053 2.47861,9.35947 c 1.36324,5.14772 3.58987,13.32139 4.94808,18.16373 l 2.46946,8.80424 -1.94807,1.668 -1.94812,1.66799 v 2.08128 c 0,2.12905 3.99312,14.32784 10.40076,31.77385 l 3.59924,9.79962 v 6.98363 6.98363 l 2.39762,4.73148 c 3.43463,6.7779 10.85975,16.3485 16.89898,21.7819 l 5.2034,4.68143 0.31608,-1.59303 0.31608,-1.59304 -3.94676,-6.78761 c -11.23329,-19.31893 -23.81544,-50.72372 -22.5075,-51.61246 0.34519,-0.23455 5.50326,13.58068 6.78407,16.73643 12.44323,30.65858 37.10266,71.29788 52.91072,87.01841 l 7.12731,7.08784 10,6.61557 c 43.40244,28.71319 102.58099,50.31232 150.5,54.92985 l 12.5,1.20452 19,-0.59436 19,-0.59436 10.5,-1.6048 C 726.94233,621.78637 815.67155,549.23254 848.82331,448.28972 l 5.08858,-15.49407 2.03043,-10.50522 2.03043,-10.50521 0.58736,-12.5 0.58736,-12.5 -1.17976,-11 c -2.37986,-22.1896 -7.58865,-42.6878 -16.77126,-66 l -5.51456,-14 -9.86651,-19.5 c -8.8529,-17.49673 -20.08483,-37.00294 -37.42784,-65 l -5.88485,-9.5 -8.09483,-8 -8.09483,-8 -8.76934,-6.19999 -8.76934,-6.19999 -11.76142,-5.99633 c -6.46878,-3.29798 -15.1847,-7.14549 -19.3687,-8.55001 l -7.60727,-2.55368 h -3.60887 -3.60887 l 1.0412,1.94549 1.04119,1.94549 -9.79381,-4.34234 c -23.03321,-10.21238 -37.96487,-14.19945 -69.71821,-18.61625 -24.84228,-3.4555 -32.95476,-5.09375 -43,-8.68352 l -7,-2.50152 -6.59334,-4.25216 -6.59334,-4.25216 -2.15666,-3.48955 -2.15666,-3.48955 v -3.59717 -3.59717 l 3.25,-3.711519 3.25,-3.711522 8,-3.738073 c 4.4,-2.05594 12.5,-5.013914 18,-6.573275 l 10,-2.835201 20.5,0.04688 20.5,0.04688 11.5,1.758192 c 39.4447,6.030553 75.11264,16.788648 106.5,32.122318 l 15,7.32795 10.58456,7.02616 10.58455,7.02615 14.13783,12.61339 14.13782,12.61338 10.18784,11.20935 c 50.95921,56.06878 80.24891,123.9521 84.86619,196.69025 l 1.02734,16.18415 -1.03359,15.66747 c -3.91839,59.3963 -22.1583,106.4022 -60.59835,156.16748 l -8.88291,11.5 -16.50564,16.5591 -16.50564,16.55911 -11,8.53769 c -58.49791,45.40336 -120.94388,70.3155 -192.5,76.7958 l -11.5,1.04147 -20.5,-0.10786 -20.5,-0.10786 z M 294.46484,432.52713 c -1.1783,-1.17829 -1.64707,0.61512 -0.88613,3.39009 l 0.78646,2.868 0.33745,-2.84142 c 0.18561,-1.56278 0.0786,-3.10028 -0.23778,-3.41667 z m 45.42475,-127.11369 c 0,-3.60227 4.11397,-19.81858 6.8926,-27.16899 l 2.09453,-5.54077 3.75644,-3.54227 c 2.06604,-1.94825 5.04199,-4.43438 6.61322,-5.52474 l 2.85679,-1.98247 12.64321,-18.93449 12.64321,-18.93449 3.35712,-0.32135 3.35711,-0.32134 -0.35711,0.82134 c -0.68641,1.5787 -7.4133,10.60599 -14.29142,19.17866 -10.48991,13.07428 -19.59024,27.62271 -29.60681,47.33149 -9.60019,18.88952 -9.95889,19.42761 -9.95889,14.93942 z m 4.58383,-44.22084 c 1.04159,-1.15095 2.75406,-2.55303 3.80548,-3.11573 l 1.91169,-1.02311 -2.21859,3.11573 -2.2186,3.11573 h -1.58689 -1.58689 z m 61.51806,-52.85997 c 2.41896,-3.54893 7.07496,-9.32678 10.34666,-12.83968 l 5.94855,-6.38709 8.78147,-4.41032 c 10.90983,-5.47925 11.74806,-5.54468 3.90084,-0.30451 l -6.1485,4.10581 -13.61357,13.14419 -13.61356,13.14419 z m 88.44811,-69.9473 c 4.1161,-3.89897 24.65902,-10.06196 33.61709,-10.08533 l 5.6671,-0.0148 4.77706,-2.04769 4.77706,-2.04768 2.47873,0.29768 c 1.3633,0.16373 2.63504,0.77504 2.8261,1.35847 l 0.34738,1.06079 -14.77026,2.81902 c -8.12364,1.55046 -18.49897,3.37682 -23.05629,4.05858 -4.55732,0.68176 -8.56982,1.52335 -8.91667,1.8702 l -0.63063,0.63063 1.91666,0.0354 1.91667,0.0354 -2.5,1.42913 -2.5,1.42913 -3.45,0.0354 -3.45,0.0354 z"
         id="path2207"
         sodipodi:nodetypes="sscsssscsscccccccsscccccsscssscccccsssscccccccsscccsscccsscccsssscsscccsscccccsscsscccccsscccccssscccccccccsscccsscccccsscsscccsscccssscsssscsscccccsssssscccccssscsscccscscccsscssscccccccc" />
    </g>
  </g>
</svg>
